<svg xmlns="http://www.w3.org/2000/svg" width="69" height="69" viewBox="0 0 69 69"><g transform="translate(-593 -2690)"><path d="M34.5,0A34.5,34.5,0,1,1,0,34.5,34.5,34.5,0,0,1,34.5,0Z" transform="translate(593 2690)" fill="#faaa1a"/><g transform="translate(238.167 2666.372)"><g transform="translate(371.833 38.628)"><path d="M411.316,130.9h-6.3a.836.836,0,0,0-.8,1.091,4.169,4.169,0,0,0,7.9,0A.836.836,0,0,0,411.316,130.9Z" transform="translate(-392.418 -97.367)" fill="#fff"/><path d="M399.027,63.8V56.814h-.016a8.873,8.873,0,0,1-7.35-13.841,11.345,11.345,0,0,0-1.427-.449V41.306a2.678,2.678,0,0,0-5.356,0v1.208a11.537,11.537,0,0,0-8.838,11.179V63.758h-.02l-3.872,3.619a1.731,1.731,0,0,0,1.609,2.675h28a1.725,1.725,0,0,0,1.546-2.757Z" transform="translate(-371.833 -38.628)" fill="#fff"/></g><circle cx="7.861" cy="7.861" r="7.861" transform="translate(391.15 39.628)" fill="#fff"/><text transform="translate(396.039 51.628)" fill="#faaa1a" font-size="12" font-family="CircularStd-Black, Circular Std Black" font-weight="800"><tspan x="0" y="0">1</tspan></text></g></g></svg>