<svg xmlns="http://www.w3.org/2000/svg" width="118.394" height="89.265" viewBox="0 0 118.394 89.265"><g transform="translate(-4223.948 288.94)"><g transform="translate(4294.994 -222.634)"><g transform="translate(1.912 9.125)"><path d="M5324.123,843.244s1.6-1.865.1-3.05a4.257,4.257,0,0,0-1.99-.61s1.267,2.123.857,2.334-1.241-2.468-1.241-2.468a10.066,10.066,0,0,0-3.3.144s2.132,1.745,1.683,1.849-2.751-1.609-2.751-1.609-2.321.4-2.2,1.811.924,1.853,1.275,1.816,2.408-.823,2.453-.535-1.193,1.229-2.06,1.273c0,0,1.637,1.8,2.724,1.284s1.181-1.346,1.858-1.656,1.257-.309.977.007-1.507.623-1.895,1.309-.736,1.148.39.979,2.954-.993,3.035-1.936Z" transform="translate(-5315.28 -839.376)" fill="#599dad"/><g transform="translate(1.145 2.297)"><path d="M5332.413,873.745s6.3-.243,7.7,1.56a4.562,4.562,0,0,0,1.255,1.762l.148.4s-1.093-1.152-1.483-1.222C5340.03,876.248,5340.641,874.014,5332.413,873.745Z" transform="translate(-5332.413 -873.734)" fill="#599dad"/><path d="M5461.351,921.373a3.96,3.96,0,0,1,1.447,2.789l-.246.022a6.4,6.4,0,0,0-1.213-2.572C5460.558,920.889,5461.351,921.373,5461.351,921.373Z" transform="translate(-5452.398 -918.04)" fill="#599dad"/></g></g><g transform="translate(14.673 4.06)"><path d="M5507.823,770.2s-2.543-1.424-1.356-3.357a5.051,5.051,0,0,1,1.967-1.492s-.542,2.883,0,2.95.373-3.256.373-3.256,2.679-1.289,3.73-1.187c0,0-1.662,2.815-1.119,2.747s2.408-2.917,2.408-2.917,2.747-.509,3.188,1.119-.271,2.442-.678,2.544-3.018.068-2.95.407,1.831.882,2.815.577c0,0-1.085,2.679-2.51,2.543s-1.865-1.017-2.747-1.085-1.526.17-1.085.407,1.933.078,2.645.683,1.289.979-.034,1.25-3.7.1-4.172-.916Z" transform="translate(-5506.151 -763.618)" fill="#6bb7bf"/><g transform="translate(0.329 1.703)"><path d="M5529.632,789.094s-7.122,2.306-7.936,4.883a5.407,5.407,0,0,1-.678,2.476v.509a7.413,7.413,0,0,1,1.153-1.967S5520.577,792.757,5529.632,789.094Z" transform="translate(-5520.353 -789.094)" fill="#6bb7bf"/><path d="M5511.734,894.755a4.7,4.7,0,0,0-.472,3.7l.283-.076a7.591,7.591,0,0,1,.3-3.361C5512.42,893.892,5511.734,894.755,5511.734,894.755Z" transform="translate(-5511.069 -887.396)" fill="#6bb7bf"/></g></g><g transform="translate(0)"><path d="M5298.974,711.568s3.353-1.878,1.788-4.426a6.654,6.654,0,0,0-2.593-1.967s.715,3.8,0,3.889-.492-4.292-.492-4.292-3.532-1.7-4.917-1.565c0,0,2.19,3.711,1.475,3.621s-3.174-3.844-3.174-3.844-3.621-.671-4.2,1.475.357,3.219.894,3.353,3.979.089,3.889.536-2.414,1.162-3.71.76c0,0,1.431,3.532,3.308,3.353s2.459-1.341,3.621-1.43,2.012.224,1.431.536-2.548.1-3.487.9-1.7,1.29.044,1.647,4.873.134,5.5-1.207Z" transform="translate(-5286.676 -702.886)" fill="#86d1cd"/><g transform="translate(1.837 2.245)"><path d="M5314.161,736.466s9.388,3.04,10.461,6.437a7.128,7.128,0,0,0,.894,3.263v.671a9.763,9.763,0,0,0-1.52-2.593S5326.1,741.294,5314.161,736.466Z" transform="translate(-5314.161 -736.466)" fill="#6bb7bf"/><path d="M5477.748,875.748a6.192,6.192,0,0,1,.623,4.875l-.373-.1s.361-2.948-.4-4.43S5477.748,875.748,5477.748,875.748Z" transform="translate(-5466.393 -866.047)" fill="#6bb7bf"/></g></g><path d="M5381.649,949.626a6.568,6.568,0,0,0,6.567-6.568h-13.135A6.568,6.568,0,0,0,5381.649,949.626Z" transform="translate(-5369.171 -927.002)" fill="#ee9849"/><path d="M5394.438,949.575a6.571,6.571,0,0,1-7.383-6.517h1.631A6.569,6.569,0,0,0,5394.438,949.575Z" transform="translate(-5380.344 -927.002)" fill="#f3b175"/><path d="M5387.041,1034.987h-13.316a.81.81,0,0,1,.81-.81h11.7a.81.81,0,0,1,.81.81Z" transform="translate(-5367.905 -1012.029)" fill="#ee9849"/><rect width="13.501" height="0.201" transform="translate(5.694 16.056)" fill="#ee9849"/></g><g transform="translate(4223.948 -258.03)"><path d="M4251.706,337.222c-.329.1-.823.5-1.5.141a11.049,11.049,0,0,0-1.25-.549c-.1-.032-.158-.053-.158-.053l.375-.779a.153.153,0,0,0,.033.014,4.963,4.963,0,0,0,1.515.318c.5-.055,1.241.623,1.241.623S4252.034,337.132,4251.706,337.222Z" transform="translate(-4247.142 -325.114)" fill="#ffb27d"/><g transform="translate(0 0)"><rect width="23.128" height="23.128" rx="7" fill="#e3f0ff"/><path d="M4285.535,217.614v11.293a2.933,2.933,0,0,1-2.935,2.935h-11.293a2.933,2.933,0,0,1-2.935-2.935V217.614a2.935,2.935,0,0,1,2.935-2.935H4282.6A2.935,2.935,0,0,1,4285.535,217.614Z" transform="translate(-4265.402 -211.921)" fill="#d2e4ff"/><g transform="translate(3.142 4.64)"><path d="M4345.718,318.255a15.2,15.2,0,0,1-.283,2.56l-1.791,1.249,6.742,1.009-1.608-2.221a10.809,10.809,0,0,1-.231-3.247C4348.8,316.727,4345.718,318.255,4345.718,318.255Z" transform="translate(-4338.784 -312.352)" fill="#ffb27d"/><path d="M4374.526,334.778s.533,1.283,1.537,1.255,1.233-1.164,1.233-1.164Z" transform="translate(-4367.602 -328.632)" fill="#ed985f"/><path d="M4356.161,247.944a16.076,16.076,0,0,0-.551-2.109,2.057,2.057,0,0,1,2.093-2.791,2.889,2.889,0,0,0,1.49-.207s0,.321-.132.434a1.667,1.667,0,0,1,1.546.547c.679.754-.453,3.394-.4,4.017Z" transform="translate(-4349.835 -242.837)" fill="#b64c41"/><path d="M4366.95,278.433a2.476,2.476,0,0,1-2.067-2.181V274.38a.747.747,0,0,1,.679-.8h2.776a.747.747,0,0,1,.679.8v1.766A2.413,2.413,0,0,1,4366.95,278.433Z" transform="translate(-4358.603 -271.528)" fill="#ffb27d"/><path d="M4363.591,269.46s0-1.125.895-1.3,2.885.548,3.168-.272-3.854-.806-4.062-.283A5.285,5.285,0,0,0,4363.591,269.46Z" transform="translate(-4357.311 -265.608)" fill="#b64c41"/><path d="M4283.523,369.952h0a1.223,1.223,0,0,0-.287-.078v0a17.766,17.766,0,0,0-2.073-.4l-.219-.027a3.214,3.214,0,0,1-1.168,1.043c-.083.041-.166.079-.251.115s-.149.062-.228.092a1.4,1.4,0,0,1-.286-.072c-.054-.019-.106-.041-.159-.066a3.5,3.5,0,0,1-1.251-1.149c-.1.01-.2.022-.291.033a9.809,9.809,0,0,0-1.662.339h0c-.052.006-1.888.259-4.7,4.5a2.935,2.935,0,0,0,2.762,1.942H4285a2.934,2.934,0,0,0,2.775-1.976C4285.651,371.03,4284.129,370.176,4283.523,369.952Z" transform="translate(-4270.948 -360.955)" fill="#2f5196"/><path d="M4366.473,362.97a.716.716,0,0,0-.384.464s1.2,1.235,1.986,1.254Z" transform="translate(-4359.729 -354.939)" fill="#ee9849"/><path d="M4395.8,363.816l1.55-1.78a.726.726,0,0,1,.315.557S4396.468,363.864,4395.8,363.816Z" transform="translate(-4387.455 -354.067)" fill="#ee9849"/><path d="M4384.556,392.25h-1.549c.183-2.079.405-4.136.512-5.1.022-.2.039-.346.05-.442,0-.016,0-.031,0-.044s0-.014,0-.02l.007-.059.155,0,.244,0h0l.1,0s0,.016,0,.047l.006.064c0,.02,0,.043.005.068.01.114.023.279.041.486C4384.226,388.249,4384.393,390.249,4384.556,392.25Z" transform="translate(-4375.516 -376.969)" fill="#ee9849"/><path d="M4385.649,378.636a7.455,7.455,0,0,1,1.15-.028.121.121,0,0,1,.092.179c-.122.22-.371.6-.631.6C4385.9,379.388,4385.325,378.661,4385.649,378.636Z" transform="translate(-4377.892 -369.518)" fill="#e58638"/></g></g></g><g transform="translate(4324.141 -233.939)"><path d="M1.693,0H16.508A1.693,1.693,0,0,1,18.2,1.693v0a1.693,1.693,0,0,1-1.693,1.693H1.693A1.693,1.693,0,0,1,0,1.693v0A1.693,1.693,0,0,1,1.693,0Z" transform="translate(0 0)" fill="#ee9849"/><g transform="translate(0.631 3.386)"><path d="M5735.87,584.434l-.216,1.982-3.13,28.684a.179.179,0,0,1-.164.176.307.307,0,0,1-.269-.358l2.482-29.374.094-1.11Z" transform="translate(-5732.089 -584.434)" fill="#efcbab"/><path d="M5770.542,584.434l-.216,1.982c-.148-.789-1.08-.872-1.08-.872l.094-1.11Z" transform="translate(-5766.762 -584.434)" fill="#cca07f"/><g transform="translate(13.16)"><path d="M5932.449,615.275a.178.178,0,0,1-.164-.176l-3.13-28.684-.135-1.236-.081-.745h1.2l.094,1.11.074.871,2.409,28.5A.308.308,0,0,1,5932.449,615.275Z" transform="translate(-5928.939 -584.434)" fill="#efcbab"/><path d="M5930.309,586.414a2.066,2.066,0,0,0-1.288-1.234h0l-.081-.745h1.2l.094,1.11Z" transform="translate(-5928.939 -584.434)" fill="#cca07f"/></g></g></g><g transform="translate(4232.219 -286.284)"><rect width="23.371" height="23.371" rx="7" transform="translate(0 0)" fill="#e3f0ff"/><path d="M4409.9-204.557v11.412a2.994,2.994,0,0,1-.095.748,2.972,2.972,0,0,1-1.8,2.019q-.051.02-.1.037a2.954,2.954,0,0,1-.968.162h-11.412a2.927,2.927,0,0,1-.442-.033,2.964,2.964,0,0,1-2.147-1.487,2.95,2.95,0,0,1-.376-1.445v-11.412a2.965,2.965,0,0,1,2.965-2.965h11.412A2.965,2.965,0,0,1,4409.9-204.557Z" transform="translate(-4389.558 210.309)" fill="#d2e4ff"/><g transform="translate(3.377 4.844)"><path d="M4482.308-110.488a13.352,13.352,0,0,1-.249,2.249l-1.574,1.1,5.924.887L4485-108.206a9.5,9.5,0,0,1-.2-2.854C4485.017-111.83,4482.308-110.488,4482.308-110.488Z" transform="translate(-4474.982 115.675)" fill="#ffb27d"/><path d="M4507.624-95.968s.468,1.128,1.351,1.1,1.083-1.023,1.083-1.023Z" transform="translate(-4500.307 101.369)" fill="#ed985f"/><path d="M4491.484-172.276a14.184,14.184,0,0,0-.484-1.853,1.807,1.807,0,0,1,1.839-2.453,2.538,2.538,0,0,0,1.309-.182s0,.282-.116.381a1.464,1.464,0,0,1,1.358.481c.6.663-.4,2.983-.348,3.53Z" transform="translate(-4484.694 176.764)" fill="#2c3a64"/><path d="M4502.781-149.044v1.552a1.835,1.835,0,0,1-.16.738h0a2.358,2.358,0,0,1-.795.959,1.529,1.529,0,0,1-.86.313,1.667,1.667,0,0,1-.818-.308,2.306,2.306,0,0,1-.918-1.132l0-.007-.006-.02a1.5,1.5,0,0,1-.072-.45v-1.646a.656.656,0,0,1,.6-.7h2.439A.656.656,0,0,1,4502.781-149.044Z" transform="translate(-4492.398 151.55)" fill="#ffb27d"/><path d="M4410.2-65.125s-1.391-.3-2.014-.372a2.884,2.884,0,0,1-1.447,1.125,2.667,2.667,0,0,1-1.491-1.158,8.355,8.355,0,0,0-1.716.354h0c-.056.007-2.211.307-5.359,6a2.964,2.964,0,0,0,2.147,1.487c.406-.35,1.277-1.107,1.96-1.7-.007.192-.009.365,0,.516.012.408.024.812.034,1.218h8.589c-.017-.206-.03-.4-.04-.593-.029-.59-.057-1.13-.082-1.622,0,0,0-.009,0-.013s0-.01,0-.016l0,0,.435.377.1.085.086.076.122.106.223.194.1.09.055.048.063.055.047.041.11.1.09.078.074.064.265.23.1.088.1.09.071.062.031.027.1.09.1.088.04.034.042.035q.051-.017.1-.037a2.972,2.972,0,0,0,1.8-2.019C4412.1-64.973,4410.2-65.125,4410.2-65.125Z" transform="translate(-4398.177 72.965)" fill="#f99746"/><path d="M4498.013-153.368s0-.989.787-1.141,2.535.482,2.784-.239-3.387-.708-3.57-.249A4.647,4.647,0,0,0,4498.013-153.368Z" transform="translate(-4491.263 156.753)" fill="#2c3a64"/><path d="M4460.561,25.871h-1.018c-.009-.405-.022-.81-.034-1.218,0-.151,0-.325,0-.516,0-.043,0-.086.005-.131l.051.082C4459.723,24.336,4460.138,25.028,4460.561,25.871Z" transform="translate(-4455.407 -10.584)" fill="#ed7d2b"/><path d="M4515.761-110.6v.684a1.529,1.529,0,0,1-.86.313,1.667,1.667,0,0,1-.818-.308v-.689a.7.7,0,0,1,.694-.695h.29A.7.7,0,0,1,4515.761-110.6Z" transform="translate(-4506.334 115.672)" fill="#2c3a64"/><path d="M4589.056,17.863q-.051.02-.1.037l-.042-.035-.04-.034-.1-.088-.1-.09-.031-.027-.071-.062-.1-.09-.1-.088-.265-.23-.074-.064-.09-.078-.11-.1-.047-.041-.063-.055-.055-.048-.1-.09-.223-.194-.122-.106-.086-.076-.1-.085-.434-.377-.008-.007.007-.005a.842.842,0,0,1,1.293.281A19.631,19.631,0,0,0,4589.056,17.863Z" transform="translate(-4573.985 -2.775)" fill="#ed7d2b"/><path d="M4503.621-107.733a2.079,2.079,0,0,1-1.655,1.272,2.264,2.264,0,0,1-1.736-1.44l0-.007-.006-.02s.58.494.962.249h1.61A.8.8,0,0,0,4503.621-107.733Z" transform="translate(-4493.399 112.529)" fill="#2c3a64"/><path d="M4521.862-106.195h-.347c-.08,0-.181-.13-.181-.21a.381.381,0,0,1,.181-.08h.347a.292.292,0,0,1,.215.113A.239.239,0,0,1,4521.862-106.195Z" transform="translate(-4513.101 111.182)" fill="#ffb27d"/></g></g><g transform="translate(4260.179 -286.761)"><rect width="23.371" height="23.371" rx="7" transform="translate(0 0)" fill="#e3f0ff"/><path d="M4828.139-211.692v11.412a2.957,2.957,0,0,1-.7,1.915,2.961,2.961,0,0,1-2.265,1.051h-11.413a2.95,2.95,0,0,1-1.955-.736,2.956,2.956,0,0,1-1.011-2.23v-11.412a2.966,2.966,0,0,1,2.965-2.966h11.413A2.966,2.966,0,0,1,4828.139-211.692Z" transform="translate(-4807.795 217.445)" fill="#d2e4ff"/><g transform="translate(4.012 5.333)"><path d="M4878.559-168.505s-1.862-.093-1.914-1.168-1.59-1.858-1.145-2.721c.546-1.058.048-2.075.737-2.786.76-.784,1.72-.358,2.226-.815a1.942,1.942,0,0,1,2.346-.313c.914.564,1.61.26,2.211.8.663.6.412,1.356.959,1.766.5.376.3,1.4-.125,2.238-.3.6.4,1.166-.808,1.857-.5.288-.392,1.012-1.914,1.137C4880.447-168.449,4878.959-168.77,4878.559-168.505Z" transform="translate(-4872.11 176.579)" fill="#2c3a64"/><path d="M4895.721-82.291a14.416,14.416,0,0,1-.269,2.431l-1.7,1.186,6.4.958-1.526-2.109a10.26,10.26,0,0,1-.219-3.084C4898.648-83.742,4895.721-82.291,4895.721-82.291Z" transform="translate(-4889.216 89.412)" fill="#b56f40"/><path d="M4923.076-66.6s.506,1.219,1.46,1.192,1.17-1.105,1.17-1.105Z" transform="translate(-4916.581 73.954)" fill="#99592e"/><path d="M4915.883-120.105a2.352,2.352,0,0,1-1.963-2.071v-1.778a.709.709,0,0,1,.645-.756h2.636a.709.709,0,0,1,.645.756v1.677A2.291,2.291,0,0,1,4915.883-120.105Z" transform="translate(-4908.036 128.179)" fill="#b56f40"/><path d="M4837.5-33.246h0a17.3,17.3,0,0,0-2.176-.428,3.11,3.11,0,0,1-1.564,1.214,2.884,2.884,0,0,1-1.61-1.249,9.018,9.018,0,0,0-1.854.38h0c-.077.01-1.778.274-4.378,4.157a2.951,2.951,0,0,0,1.955.736h10.21v-.027h1.2a2.961,2.961,0,0,0,2.265-1.051C4839.716-32.651,4837.5-33.246,4837.5-33.246Z" transform="translate(-4825.911 43.26)" fill="#b64c41"/><path d="M4913.864-134.107a1.864,1.864,0,0,1,2.051-1.236c1.571.228,1.707.564,1.874.953s.49-1.424.49-1.424l-1.854-.551s-2.243.255-2.4.631l-.161.376Z" transform="translate(-4907.98 139.052)" fill="#2c3a64"/><path d="M4918.809-102.068a.506.506,0,0,0-.4-.169h-.834a.367.367,0,0,0-.329.135.292.292,0,0,0-.047.138h0a.776.776,0,0,0-.371.007h0a.306.306,0,0,0-.048-.144.367.367,0,0,0-.329-.135h-.834a.5.5,0,0,0-.4.169.425.425,0,0,0-.078.366c.095.472.637.532.909.532.084,0,.142-.006.152-.007.253,0,.432-.145.562-.456a.812.812,0,0,0,.063-.256h0a.719.719,0,0,1,.368-.008h0a.8.8,0,0,0,.063.263c.13.31.309.455.563.456.011,0,.069.007.152.007.271,0,.814-.06.909-.531A.43.43,0,0,0,4918.809-102.068Zm-2.033.2a.823.823,0,0,1-.058.218c-.12.288-.283.422-.513.422h0a1.619,1.619,0,0,1-.463-.021.6.6,0,0,1-.54-.459.371.371,0,0,1,.066-.321.45.45,0,0,1,.354-.149h.834a.318.318,0,0,1,.284.111.261.261,0,0,1,.039.129h0a.74.74,0,0,0-.073.027.033.033,0,0,0-.016.044.032.032,0,0,0,.03.019.034.034,0,0,0,.014,0s.017-.008.045-.017Zm2.057.159a.6.6,0,0,1-.541.459,1.616,1.616,0,0,1-.462.021h0c-.229,0-.393-.134-.513-.422a.786.786,0,0,1-.058-.223h0a.494.494,0,0,1,.047.022.033.033,0,0,0,.044-.014.032.032,0,0,0-.014-.044.569.569,0,0,0-.078-.034h0a.256.256,0,0,1,.039-.123.317.317,0,0,1,.283-.111h.834a.452.452,0,0,1,.355.149A.373.373,0,0,1,4918.833-101.713Z" transform="translate(-4909.169 107.207)" fill="#2c3a64"/></g></g><g transform="translate(4292.38 -288.94)"><path d="M5266.389-263.934l-15.277-1.762a4,4,0,0,1-3.512-4.428l1.762-15.277a4,4,0,0,1,4.428-3.512l15.277,1.762a4,4,0,0,1,3.512,4.428l-1.762,15.277A4,4,0,0,1,5266.389-263.934Z" transform="translate(-5247.572 288.94)" fill="#e3f0ff"/><path d="M5314.614-239.43l-1.308,11.337a2.955,2.955,0,0,1-.417,1.208h0a2.975,2.975,0,0,1-1.45,1.213,2.939,2.939,0,0,1-1.1.2h0a2.91,2.91,0,0,1-.318-.019l-4.807-.554-.95-.109-3.106-.358-.4-.046-2.076-.239a2.964,2.964,0,0,1-2.411-1.836c-.025-.063-.049-.127-.07-.192a2.923,2.923,0,0,1-.143-.812,2.975,2.975,0,0,1,.018-.445l1.308-11.337a2.965,2.965,0,0,1,3.286-2.606l11.337,1.307A2.966,2.966,0,0,1,5314.614-239.43Z" transform="translate(-5292.817 247.045)" fill="#d2e4ff"/><g transform="translate(3.243 5.476)"><path d="M5309.839-202.272a.163.163,0,0,0,0-.027c-.036-.207-.078-.413-.123-.615h0c.252-1.621-.37-2.314-.908-2.665h0a2.415,2.415,0,0,0-.891-1.1,2.875,2.875,0,0,0-1.574-.166.727.727,0,0,1,.313-.182,2.407,2.407,0,0,0-.837.3c-3.808-1.11-3.93,4.369-3.746,5.624s-1.1,1.778-2.933,2.934a8.44,8.44,0,0,0-3.048,3.08,2.923,2.923,0,0,0,.143.812.572.572,0,0,1,.18-.117c0,.011-.049.135-.11.309a2.964,2.964,0,0,0,2.411,1.836l2.075.239.4.046,3.106.358c.326-.462.682-.941,1.051-1.416a30.911,30.911,0,0,1,2.735-3.122c.282-.273.549-.512.8-.707l.027-.021a3.593,3.593,0,0,0,.293-.714,8.717,8.717,0,0,0,.317-1.911,8.474,8.474,0,0,1-.179,1.93,3.437,3.437,0,0,1-.128.424,2.319,2.319,0,0,0,.292-.4A7.607,7.607,0,0,0,5309.839-202.272Z" transform="translate(-5296.087 207.027)" fill="#163560"/><path d="M5431.932-105.39a3.412,3.412,0,0,1-2.123.14,2.717,2.717,0,0,1-1.231-1.487c.366-.03.526-.509.762-2.622l.158.051,2.656.852s-.16.848-.255,1.654C5431.818-106.126,5431.785-105.48,5431.932-105.39Z" transform="translate(-5419.72 115.888)" fill="#ffb27d"/><path d="M5428.193-195.748a2.188,2.188,0,0,1,3.028-.329A11.865,11.865,0,0,0,5428.193-195.748Z" transform="translate(-5419.361 197.245)" fill="#bc3f3f"/><path d="M5444.993-107.751s-.16.848-.255,1.654a3.245,3.245,0,0,1-2.4-2.506Z" transform="translate(-5432.56 115.183)" fill="#ef9e67"/><path d="M5432.468-172.388s-3.6.364-3.8-1.885-.787-3.716,1.507-4.043,2.814.492,3.062,1.227S5433.4-172.54,5432.468-172.388Z" transform="translate(-5419.608 180.304)" fill="#ffb27d"/><path d="M5416.929-185.584s-.766,2.721-2.25,3.239a3,3,0,0,1-2.176.167,4.311,4.311,0,0,0,1.191-2.656S5416.078-186.777,5416.929-185.584Z" transform="translate(-5404.72 187.379)" fill="#163560"/><path d="M5475.317-183.449a3.2,3.2,0,0,1,1.016,1.084c.228.557.409,1.729.749,1.66,0,0,.594-1.856-.329-2.8C5475.775-184.505,5475.317-183.449,5475.317-183.449Z" transform="translate(-5463.335 185.479)" fill="#163560"/><path d="M5376.982-71.747a3.128,3.128,0,0,0-1.89-.84l-.163-.025-.138-.019c-.316-.041-.62-.063-.879-.074l-.069-.1,0,0-3.048-.247-.032,0h-.013c-.229-.025-3.388-.338-4,.776a7.019,7.019,0,0,0-.218,3.667c-.057.524-.1,1.058-.146,1.559l.4.046,3.106.358.95.11,4.807.554a2.91,2.91,0,0,0,.318.019h0a2.943,2.943,0,0,0,1.1-.2,2.976,2.976,0,0,0,1.449-1.213h0A15.3,15.3,0,0,0,5376.982-71.747Z" transform="translate(-5361.684 82.069)" fill="#bc3f3f"/></g></g><g transform="translate(4293.953 -258.182)"><rect width="23.358" height="23.358" rx="7" transform="translate(0)" fill="#e3f0ff"/><path d="M5333.3,215.781v11.405a2.962,2.962,0,0,1-2.819,2.96c-.048,0-.1,0-.146,0h-11.467l-.059,0a2.96,2.96,0,0,1-2.844-2.961V215.781a2.964,2.964,0,0,1,2.963-2.964h11.406A2.964,2.964,0,0,1,5333.3,215.781Z" transform="translate(-5312.962 -210.032)" fill="#d2e4ff"/><g transform="translate(3.12 4.262)"><path d="M5386.847,321.434a17.441,17.441,0,0,1-.325,2.937l-2.055,1.433,7.735,1.158-1.844-2.549a12.4,12.4,0,0,1-.265-3.726C5390.384,319.681,5386.847,321.434,5386.847,321.434Z" transform="translate(-5380.008 -314.662)" fill="#ffb27d"/><path d="M5419.9,340.391s.611,1.472,1.764,1.44,1.414-1.335,1.414-1.335Z" transform="translate(-5413.072 -333.339)" fill="#ed985f"/><path d="M5398.827,240.763a18.474,18.474,0,0,0-.632-2.42,2.36,2.36,0,0,1,2.4-3.2,3.313,3.313,0,0,0,1.709-.238s0,.368-.151.5a1.913,1.913,0,0,1,1.774.627c.779.865-.519,3.895-.455,4.609Z" transform="translate(-5392.687 -234.903)" fill="#2c3a64"/><path d="M5411.206,275.743a2.841,2.841,0,0,1-2.371-2.5v-2.148a.857.857,0,0,1,.779-.914h3.185a.857.857,0,0,1,.779.914v2.027A2.769,2.769,0,0,1,5411.206,275.743Z" transform="translate(-5402.747 -267.82)" fill="#ffb27d"/><path d="M5407.353,265.448s0-1.291,1.026-1.489,3.311.629,3.635-.312-4.423-.925-4.662-.325A6.062,6.062,0,0,0,5407.353,265.448Z" transform="translate(-5401.264 -261.029)" fill="#2c3a64"/><path d="M5370.264,386.28h-10.886c.274-2.48.861-5.47,1.332-5.667,0,0,.054-.02.157-.052h0a10.64,10.64,0,0,1,1.523-.336h.005q.327-.051.713-.091a3.473,3.473,0,0,0,1.945,1.477,3.663,3.663,0,0,0,1.89-1.434c.237.028.479.06.727.1.6.093,1.238.219,1.9.386l.237.061h0l.094.025s.008.033.026.227h0C5369.975,381.413,5370.071,382.684,5370.264,386.28Z" transform="translate(-5356.596 -370.423)" fill="#739af0"/><g transform="translate(0 9.8)"><path d="M5321.966,381.84l-.008,0a1.529,1.529,0,0,0-.165.048l-.012,0-.01,0-.007,0c-.571.2-2,.923-4,3.523a2.965,2.965,0,0,0,2.723,2.122l.059,0h2.935c.031-1.831.053-3.425.067-4.517.006-.482.01-.867.013-1.131s0-.409,0-.409h-.005A11.375,11.375,0,0,0,5321.966,381.84Z" transform="translate(-5317.767 -381.49)" fill="#2b478b"/><path d="M5485.688,382.709a1.682,1.682,0,0,0-.294-.085h0a17.362,17.362,0,0,0-1.937-.387h0c0,.016,0,.346.006.915h0c0,.365.008.829.012,1.371.01,1.009.024,2.291.042,3.721h3.111c.049,0,.1,0,.146,0a2.966,2.966,0,0,0,2.7-2.138C5487.607,383.656,5486.274,382.925,5485.688,382.709Z" transform="translate(-5472.377 -382.186)" fill="#2b478b"/></g><path d="M5416.787,296.781a.567.567,0,0,0-.446-.19h-.938a.416.416,0,0,0-.371.152.349.349,0,0,0-.053.155h0a.875.875,0,0,0-.417.007h0a.349.349,0,0,0-.054-.163.413.413,0,0,0-.37-.152h-.937a.567.567,0,0,0-.446.19.48.48,0,0,0-.088.413c.107.53.718.6,1.022.6.094,0,.159-.007.171-.008.286,0,.486-.164.632-.512a.886.886,0,0,0,.071-.288h0a.807.807,0,0,1,.413-.009h0a.892.892,0,0,0,.072.3c.146.349.347.512.632.512.013,0,.078.008.171.008.3,0,.916-.068,1.022-.6A.48.48,0,0,0,5416.787,296.781ZM5414.5,297a.878.878,0,0,1-.064.245c-.135.324-.318.474-.577.474h0a1.829,1.829,0,0,1-.521-.024.677.677,0,0,1-.607-.516.42.42,0,0,1,.074-.361.507.507,0,0,1,.4-.167h.938a.36.36,0,0,1,.319.125.289.289,0,0,1,.044.145h0a.811.811,0,0,0-.083.03.037.037,0,0,0,.015.07.038.038,0,0,0,.016,0s.02-.009.05-.019Zm2.313.179a.678.678,0,0,1-.607.516,1.826,1.826,0,0,1-.52.024h0c-.258,0-.441-.151-.577-.474a.9.9,0,0,1-.065-.251h0a.5.5,0,0,1,.053.024.037.037,0,0,0,.035-.065.622.622,0,0,0-.089-.038h0a.3.3,0,0,1,.044-.139.359.359,0,0,1,.319-.125h.938a.507.507,0,0,1,.4.167A.42.42,0,0,1,5416.813,297.181Z" transform="translate(-5406.311 -292.467)" fill="#b64c41"/></g></g><g transform="translate(4253.447 -259.104)"><rect width="27.089" height="27.089" rx="7" transform="translate(0 0)" fill="#e3f0ff"/><path d="M4737.339,209.119v13.227a3.438,3.438,0,0,1-2.146,3.187q-.111.045-.226.082a3.426,3.426,0,0,1-1.065.168h-13.227a3.437,3.437,0,0,1-3.437-3.438V209.119a3.437,3.437,0,0,1,3.438-3.438H4733.9A3.438,3.438,0,0,1,4737.339,209.119Z" transform="translate(-4713.759 -202.451)" fill="#d2e4ff"/><g transform="translate(7.901 6.655)"><path d="M4812.311,256.994h0a3.449,3.449,0,0,0-1.3-.038,4.189,4.189,0,0,0-1.739.658c-.67.453-1.638,1.43-.556,4.111l.513.922c-.171,2.008-.993,2.009-.993,2.009a1.833,1.833,0,0,0,.533.177s.253-.1.3-.237a.9.9,0,0,1-.115.29,3.676,3.676,0,0,0,2.091-.394,4.129,4.129,0,0,0,1.061-1.642l1.055.074a2.116,2.116,0,0,1-.658,1.515s1.3.128,1.741-.233a1.206,1.206,0,0,1-.167.255,4.234,4.234,0,0,0,2.055-.4C4816.733,263.6,4816.348,256.162,4812.311,256.994Z" transform="translate(-4806.568 -256.913)" fill="#233862"/><path d="M4798.586,361.594h-10.3a10.3,10.3,0,0,1-.153-2.26,4.682,4.682,0,0,1,.925-2.364,8.074,8.074,0,0,1,1.714-1.74l.065-.012c.074-.013.2-.033.336-.046h0c.128-.068.18-.534.2-1.08,0-.152.006-.31.005-.467,0-.136,0-.273-.005-.407,0-.063,0-.125,0-.187,0-.018,0-.035,0-.052s0-.052,0-.078,0-.04,0-.06,0-.061,0-.091,0-.081,0-.12c0-.009,0-.017,0-.025,0-.037,0-.073,0-.108s0-.085-.006-.125l0-.031c0-.064-.006-.123-.009-.177,0-.014,0-.029,0-.043s0-.032,0-.047,0-.029,0-.043c0-.045-.005-.083-.007-.114,0-.007,0-.014,0-.02v-.02l0-.043,1.738-.344h0l1.191-.236.14-.027.035-.007v0a10.469,10.469,0,0,0,.067,1.235,8.214,8.214,0,0,0,.146.873h0c.217.961.554,1.539.8,1.635h0l.024.009C4796.634,355.218,4798.436,358.293,4798.586,361.594Z" transform="translate(-4787.804 -344.916)" fill="#d9935c"/><path d="M4835.83,352.314s.066.922.068,1.791c1.64-.046,2.506-1.542,2.861-2.371Z" transform="translate(-4832.325 -345.395)" fill="#cb7d45"/><path d="M4809.606,281.349s3.879.064,3.882-2.352.5-4.036-1.972-4.179-2.959.778-3.156,1.585S4808.6,281.27,4809.606,281.349Z" transform="translate(-4806.648 -273.608)" fill="#d9935c"/><path d="M4829.788,267.284s1.062,2.835,2.692,3.254a3.21,3.21,0,0,0,2.337-.018,4.618,4.618,0,0,1-1.51-2.727S4830.589,265.935,4829.788,267.284Z" transform="translate(-4826.687 -266.133)" fill="#233862"/><path d="M4806.31,271.129a3.425,3.425,0,0,0-.987,1.248c-.193.615-.28,1.882-.649,1.839,0,0-.8-1.927.1-3.017C4805.726,270.043,4806.31,271.129,4806.31,271.129Z" transform="translate(-4802.944 -269.747)" fill="#233862"/><path d="M4831.52,268.241s.757,2.969,2.813,3.919c0,0-2.057-1.824-2.231-3.784S4831.52,268.241,4831.52,268.241Z" transform="translate(-4828.303 -266.763)" fill="#233862"/><path d="M4796.422,388.316l-.2-.466-.1-.228a.011.011,0,0,0,0-.006c-.9-2.129-1.606-3.736-1.676-3.853-.2-.338-2.932-.673-3.333-.671-.291,0-.45-.962-.514-1.489a.2.2,0,0,0-.3-.138l-.086.057-.107.068-.108.064-.072.041-.082.045-.075.039-.075.038-.075.036-.059.027c-.036.017-.072.033-.109.048l-.078.033-.055.022q-.15.059-.3.107a4.141,4.141,0,0,1-2.061.193l-.033-.008a.317.317,0,0,0-.388.376.817.817,0,0,1-.079.724c-.694.155-2.383.586-2.7,1.186a36.619,36.619,0,0,0-.371,5.222h12.242a3.427,3.427,0,0,0,1.065-.168q.115-.037.226-.082C4796.756,389.117,4796.587,388.71,4796.422,388.316Z" transform="translate(-4783.393 -373.105)" fill="#f99746"/><path d="M4899.824,489.408h-1.642c.415-.687.811-1.187,1.041-1.215C4899.419,488.17,4899.628,488.686,4899.824,489.408Z" transform="translate(-4890.508 -472.731)" fill="#ed7d2b"/><path d="M4847,383.092s-2.045,1.3-3.593.989c0,0-.371-.235.141-.471.481-.221,1.6-.875,1.354-1.521a5.051,5.051,0,0,0,1.28-.625.2.2,0,0,1,.3.139C4846.554,382.13,4846.713,383.092,4847,383.092Z" transform="translate(-4839.277 -373.106)" fill="#ed7d2b"/></g></g><g transform="translate(4283.045 -241.947)"><path d="M5216.481,512.919s3.115,3.186,3.266,4.415-1.5,3.151-1.5,3.151Z" transform="translate(-5209.225 -506.305)" fill="#ed7d2b"/><path d="M5136.284,1010.282s-.107,1.732-.442,1.757c-.044,0-1.7,0-1.7,0l-2.113-.012a.685.685,0,0,1,.631-.617,2.863,2.863,0,0,0,2.025-1.358C5135.079,1009.2,5136.284,1010.282,5136.284,1010.282Z" transform="translate(-5130.418 -969.898)" fill="#163560"/><path d="M5206.677,1010.282s-.107,1.732-.442,1.757c-.044,0-1.7,0-1.7,0l-2.113-.012a.685.685,0,0,1,.631-.617,2.863,2.863,0,0,0,2.025-1.358C5205.472,1009.2,5206.677,1010.282,5206.677,1010.282Z" transform="translate(-5196.106 -969.898)" fill="#163560"/><path d="M5160.675,702.629a69.782,69.782,0,0,0,2.614,9.808,50.056,50.056,0,0,1,2.342,8.991l2.212-.062s.019-6.857-.932-10.011-.2-11.374-.2-11.374Z" transform="translate(-5157.149 -680.862)" fill="#163560"/><path d="M5144.555,702.876a85.8,85.8,0,0,0,.843,11.865c.921,6.539.609,9.315.609,9.315l2.207.073s1.319-6.542.941-9.815,1.806-11.231,1.806-11.231Z" transform="translate(-5142.106 -683.563)" fill="#1c468a"/><path d="M5168.353,479.7l-1.176.771-1.7-.317c.023-.137.136-.706.238-1.221.006-.03.013-.061.019-.091.087-.438.163-.815.163-.815l1.587-.7.592-.261c0,.009-.046.486-.052.556A4.044,4.044,0,0,0,5168.353,479.7Z" transform="translate(-5161.631 -472.847)" fill="#ffb27d"/><path d="M5162.5,503.066a14.247,14.247,0,0,1,2.265-.536c.219.072.348.5.348.5l-3.293.745A1.636,1.636,0,0,1,5162.5,503.066Z" transform="translate(-5158.214 -496.605)" fill="#ed7d2b"/><path d="M5146.538,523.333c-.341,1.557-6.021,1.742-7.486.328a4.035,4.035,0,0,1-.112-1.921c.123-1.974.518-4.944.533-6.461a12.029,12.029,0,0,1,.243-2.163,17.558,17.558,0,0,1,.72-2.589,14.329,14.329,0,0,1,3.293-.744C5146.23,510.518,5146.879,521.776,5146.538,523.333Z" transform="translate(-5136.834 -503.363)" fill="#ff9843"/><path d="M5139.445,564.4c.123-1.974.518-4.944.533-6.461a12.029,12.029,0,0,1,.243-2.163l1.668-.294S5143.521,562.142,5139.445,564.4Z" transform="translate(-5137.339 -546.018)" fill="#ed7d2b"/><path d="M5146.33,644.1a.393.393,0,0,1-.125.454.761.761,0,0,0-.339.695c.055.216.579.569.761.512s.551-.342.511-.456.249-1-.194-1.342A.358.358,0,0,0,5146.33,644.1Z" transform="translate(-5143.32 -628.475)" fill="#ffb27d"/><path d="M5112.82,515.186a5.058,5.058,0,0,0-2.925,2.216c-1.3,1.911-2.15,3.332-1.911,4.021a10.26,10.26,0,0,0,2.792,3.078,1.007,1.007,0,0,0,1.016-.887s-1.533-2.3-1.231-2.642c.129-.147,1.99-1.658,2.256-.976C5113.257,521.125,5112.82,515.186,5112.82,515.186Z" transform="translate(-5107.944 -508.421)" fill="#ff9843"/><path d="M5171.224,481.282a4.916,4.916,0,0,1-2.189,1.289c.006-.03.013-.061.019-.091.087-.438.163-.815.163-.815l1.587-.7C5171.154,480.961,5171.367,481.039,5171.224,481.282Z" transform="translate(-5164.95 -476.488)" fill="#fca56b"/><path d="M5158.334,431.264s2.557.8,3.029-.8,1.12-2.574-.492-3.151-2.111-.061-2.4.435S5157.682,431.015,5158.334,431.264Z" transform="translate(-5154.668 -426.182)" fill="#ffb27d"/><path d="M5163,415.4s.163,1.862.548,1.781.734-.141.678.42-.318,1.453.869,1.552,2.62-3.2,2.294-3.784C5166.453,413.7,5161.646,413.36,5163,415.4Z" transform="translate(-5159.1 -413.99)" fill="#163560"/></g><rect width="24.91" height="24.91" rx="7" transform="translate(4251.384 -224.713)" fill="#e3f0ff"/><path d="M4700.678,719.377V731.54a3.163,3.163,0,0,1-3.161,3.161h-12.164a3.161,3.161,0,0,1-3.16-3.161V719.377a3.16,3.16,0,0,1,3.16-3.161h12.164A3.161,3.161,0,0,1,4700.678,719.377Z" transform="translate(-427.61 -937.958)" fill="#d2e4ff"/><g transform="translate(4255.384 -219.468)"><path d="M4773.235,777.923s-1.765-3.2-.146-4.616,4.47-.57,4.995,0,1.223,2.192-.226,4.5Z" transform="translate(-4767.176 -771.041)" fill="#2c3a64"/><path d="M4763.385,858.491a16.94,16.94,0,0,1-.317,2.863l-2,1.4,7.54,1.128-1.8-2.484a12.084,12.084,0,0,1-.258-3.632C4766.833,856.783,4763.385,858.491,4763.385,858.491Z" transform="translate(-4756.593 -850.291)" fill="#b56f40"/><path d="M4795.6,876.97s.6,1.435,1.719,1.4,1.379-1.3,1.379-1.3Z" transform="translate(-4788.821 -868.497)" fill="#99592e"/><path d="M4787.13,813.955a2.769,2.769,0,0,1-2.312-2.44v-2.094a.835.835,0,0,1,.759-.891h3.1a.836.836,0,0,1,.759.891V811.4A2.7,2.7,0,0,1,4787.13,813.955Z" transform="translate(-4778.759 -804.634)" fill="#b56f40"/><path d="M4711.012,919.5a3.151,3.151,0,0,1-2.312,1.007h-12.164a3.153,3.153,0,0,1-2.359-1.058c2.607-3.464,4.26-3.683,4.3-3.688a11.079,11.079,0,0,1,2.179-.428,3.413,3.413,0,0,0,1.9,1.451,3.622,3.622,0,0,0,1.819-1.43,20.629,20.629,0,0,1,2.586.5v0S4708.511,916.242,4711.012,919.5Z" transform="translate(-4694.177 -904.296)" fill="#74acbe"/><path d="M4784.755,797.465a2.2,2.2,0,0,1,2.416-1.455c1.85.269,2.011.664,2.208,1.123s.576-1.677.576-1.677l-2.183-.649s-2.642.3-2.831.743l-.19.443Z" transform="translate(-4778.695 -791.828)" fill="#2c3a64"/><path d="M4798.624,754.013s-1.956-1.777-1.116-2.157S4798.624,754.013,4798.624,754.013Z" transform="translate(-4790.404 -751.712)" fill="#2c3a64"/><path d="M4788.892,761.417s-2.473-.932-1.833-1.594S4788.892,761.417,4788.892,761.417Z" transform="translate(-4780.751 -759.069)" fill="#2c3a64"/><path d="M4817.214,754.369s-.4-2.292.572-2.276S4817.214,754.369,4817.214,754.369Z" transform="translate(-4808.911 -751.969)" fill="#2c3a64"/><path d="M4820.425,752.484s1.059-2.466,2.045-2.235S4820.425,752.484,4820.425,752.484Z" transform="translate(-4811.985 -750.234)" fill="#2c3a64"/><path d="M4819.612,762.773s1.686-2.088,2.573-1.6S4819.612,762.773,4819.612,762.773Z" transform="translate(-4811.226 -760.373)" fill="#2c3a64"/></g><path d="M5508.812,696.687h-17.5l5.751-24.91h16.654l.766.337Z" transform="translate(-1182.639 -896.49)" fill="#cca07f"/><path d="M5496.194,696.687h-17.5l5.751-24.91h17.5Z" transform="translate(-1170.865 -896.49)" fill="#e3f0ff"/><g transform="translate(4310.715 -221.211)"><path d="M5637.771,724.16H5629.7a.435.435,0,0,0-.4.324.251.251,0,0,0,.25.324h8.075a.434.434,0,0,0,.4-.324A.25.25,0,0,0,5637.771,724.16Z" transform="translate(-5622.104 -724.16)" fill="#cbe2f7"/><path d="M5632.837,750.01h-8.526a.133.133,0,0,0-.122.1.076.076,0,0,0,.076.1h8.526a.133.133,0,0,0,.122-.1A.077.077,0,0,0,5632.837,750.01Z" transform="translate(-5617.344 -748.282)" fill="#cbe2f7"/><path d="M5631.26,756.841h-8.526a.133.133,0,0,0-.122.1.076.076,0,0,0,.076.1h8.526a.133.133,0,0,0,.122-.1A.077.077,0,0,0,5631.26,756.841Z" transform="translate(-5615.872 -754.656)" fill="#cbe2f7"/><path d="M5576.329,724.809h2.182a.434.434,0,0,0,.4-.324.25.25,0,0,0-.25-.324h-2.182a.434.434,0,0,0-.4.324A.251.251,0,0,0,5576.329,724.809Z" transform="translate(-5572.444 -724.16)" fill="#cbe2f7"/><path d="M5617.875,799.375H5609.8a.435.435,0,0,0-.4.324.251.251,0,0,0,.25.324h8.076a.434.434,0,0,0,.4-.324A.25.25,0,0,0,5617.875,799.375Z" transform="translate(-5603.538 -794.347)" fill="#cbe2f7"/><path d="M5612.941,825.226h-8.526a.133.133,0,0,0-.122.1.076.076,0,0,0,.076.1h8.526a.133.133,0,0,0,.122-.1A.077.077,0,0,0,5612.941,825.226Z" transform="translate(-5598.778 -818.469)" fill="#cbe2f7"/><path d="M5611.364,832.058h-8.526a.133.133,0,0,0-.122.1.076.076,0,0,0,.076.1h8.526a.133.133,0,0,0,.122-.1A.077.077,0,0,0,5611.364,832.058Z" transform="translate(-5597.307 -824.845)" fill="#cbe2f7"/><path d="M5556.433,800.024h2.182a.434.434,0,0,0,.4-.324.25.25,0,0,0-.25-.324h-2.182a.435.435,0,0,0-.4.324A.251.251,0,0,0,5556.433,800.024Z" transform="translate(-5553.878 -794.347)" fill="#cbe2f7"/><path d="M5602.023,874.592h-8.075a.434.434,0,0,0-.4.324.25.25,0,0,0,.25.324h8.075a.434.434,0,0,0,.4-.324A.251.251,0,0,0,5602.023,874.592Z" transform="translate(-5588.746 -864.535)" fill="#cbe2f7"/><path d="M5597.089,900.443h-8.526a.133.133,0,0,0-.122.1.077.077,0,0,0,.077.1h8.525a.132.132,0,0,0,.122-.1A.076.076,0,0,0,5597.089,900.443Z" transform="translate(-5583.985 -888.658)" fill="#cbe2f7"/><path d="M5595.511,907.274h-8.526a.133.133,0,0,0-.122.1.077.077,0,0,0,.076.1h8.526a.132.132,0,0,0,.122-.1A.076.076,0,0,0,5595.511,907.274Z" transform="translate(-5582.513 -895.032)" fill="#cbe2f7"/><path d="M5540.581,875.241h2.182a.435.435,0,0,0,.4-.324.251.251,0,0,0-.25-.324h-2.182a.434.434,0,0,0-.4.324A.25.25,0,0,0,5540.581,875.241Z" transform="translate(-5539.086 -864.535)" fill="#cbe2f7"/><path d="M5583.528,952.874h-8.075a.434.434,0,0,0-.4.324.251.251,0,0,0,.25.325h8.075a.435.435,0,0,0,.4-.325A.251.251,0,0,0,5583.528,952.874Z" transform="translate(-5571.488 -937.584)" fill="#cbe2f7"/><path d="M5578.594,978.724h-8.526a.133.133,0,0,0-.122.1.076.076,0,0,0,.076.1h8.526a.133.133,0,0,0,.122-.1A.076.076,0,0,0,5578.594,978.724Z" transform="translate(-5566.727 -961.706)" fill="#cbe2f7"/><path d="M5577.017,985.556h-8.526a.133.133,0,0,0-.122.1.077.077,0,0,0,.076.1h8.526a.133.133,0,0,0,.122-.1A.076.076,0,0,0,5577.017,985.556Z" transform="translate(-5565.255 -968.081)" fill="#cbe2f7"/><path d="M5524.418,952.874h-2.182a.434.434,0,0,0-.4.324.25.25,0,0,0,.25.325h2.182a.435.435,0,0,0,.4-.325A.251.251,0,0,0,5524.418,952.874Z" transform="translate(-5521.828 -937.584)" fill="#cbe2f7"/></g><g transform="translate(4317.541 -224.866)"><path d="M5631.438,671.477h-6.78a.721.721,0,0,1-.7-.884l.255-1.106h8.348l-.311,1.346A.83.83,0,0,1,5631.438,671.477Z" transform="translate(-5623.936 -669.487)" fill="#ee9849"/><path d="M5752.418,669.487l.575.153h-.61Z" transform="translate(-5743.796 -669.487)" fill="#ed7d2b"/></g><g transform="translate(4312.694 -200.961)"><g transform="translate(0 0)"><path d="M5568.9,1027.644a.581.581,0,0,1-.58.579H5552.01a.579.579,0,0,1,0-1.159h16.314a.581.581,0,0,1,.58.579Z" transform="translate(-5551.43 -1027.065)" fill="#ee9849"/><path d="M5806.026,1027.062l2.131.471-2.131.688Z" transform="translate(-5789.005 -1027.062)" fill="#739af0"/></g><path d="M5555.6,1027.065v1.159h-3.594a.579.579,0,0,1,0-1.159Z" transform="translate(-5551.43 -1027.065)" fill="#739af0"/></g></g></svg>