<svg xmlns="http://www.w3.org/2000/svg" width="69" height="69" viewBox="0 0 69 69"><defs><style>.a{fill:#faaa1a;}.b{fill:#fff;}</style></defs><g transform="translate(343 -2769)"><path class="a" d="M34.5,0A34.5,34.5,0,1,1,0,34.5,34.5,34.5,0,0,1,34.5,0Z" transform="translate(-343 2769)"/><g transform="translate(-635.5 2409)"><g transform="translate(307.5 381)"><path class="b" d="M311.727,384.376h26.3c.649,0,1.174-.755,1.174-1.688S338.68,381,338.031,381h-26.3c-.648,0-1.174.756-1.174,1.688S311.079,384.376,311.727,384.376Z" transform="translate(-306.43 -381)"/><path class="b" d="M344.769,391.3a1.923,1.923,0,0,0,1.51-1.82v-1.588A1.97,1.97,0,0,0,344.238,386h-6.864v0H332.9v0H309.541a1.97,1.97,0,0,0-2.041,1.891v1.554a1.951,1.951,0,0,0,1.6,1.84c2.6.6,3.381,2.665,3.381,5.117,0,2.432-1.034,4.481-3.468,5.1a1.924,1.924,0,0,0-1.51,1.821v1.588a1.971,1.971,0,0,0,2.041,1.891H332.9v.017h4.47V406.8h6.864a1.971,1.971,0,0,0,2.041-1.891V403.36a1.951,1.951,0,0,0-1.6-1.84c-2.6-.6-3.381-2.666-3.381-5.117C341.3,393.97,342.335,391.921,344.769,391.3Zm-12.357,4.742-1.645,1.487a.818.818,0,0,0-.266.759l.388,2.1a.914.914,0,0,1-1.344.905l-2.034-.991a.992.992,0,0,0-.862,0l-2.033.991a.914.914,0,0,1-1.344-.905l.388-2.1a.818.818,0,0,0-.266-.759l-1.645-1.487a.843.843,0,0,1,.513-1.464l2.274-.306a.923.923,0,0,0,.7-.47l1.017-1.908a.96.96,0,0,1,1.661,0l1.016,1.908a.927.927,0,0,0,.7.47l2.273.306A.843.843,0,0,1,332.412,396.041Z" transform="translate(-307.5 -379.25)"/></g></g></g></svg>