<svg xmlns="http://www.w3.org/2000/svg" width="95.426" height="79.24" viewBox="0 0 95.426 79.24"><g transform="translate(-2352.844 -61.137)"><path d="M2448.27,118.543l-47.782,16.9-47.644-19.981L2377.1,118.1l-23.335-40.831,32.6,13.225,14.844-29.359,14.274,29.641,32.509-12.595-23.779,40.375Z" fill="#eee"/><g transform="translate(2374.844 75.602)"><g transform="translate(0 0)"><path d="M2514.829,215.57c.493-3.734-1.327-7.419-3.7-10.347s-5.312-5.353-7.676-8.285a23.873,23.873,0,0,1-5.486-15.823,18.63,18.63,0,0,1,7.848-14.518,15.973,15.973,0,0,1-.137-5.16,6.588,6.588,0,0,1,2.655-4.156,5.281,5.281,0,0,1,7.269,1.936,5.119,5.119,0,0,1,5.833-1.28,4.809,4.809,0,0,1,2.722,5.088c1.537-1.459,4.123-2.409,6.068-1.57a5.582,5.582,0,0,1,3.289,5.022c3.435-.146,6.921,2.173,8.815,5.042a23.387,23.387,0,0,1,2.905,17.795,33.658,33.658,0,0,1-9.021,15.907c-2.513,2.582-2.859,6.976-1.473,10.3a9.664,9.664,0,0,1-5.4,4.947,16.639,16.639,0,0,1-7.4.73,10.506,10.506,0,0,1-5-1.556A4.178,4.178,0,0,1,2514.829,215.57Z" transform="translate(-2497.949 -156.539)" fill="#f7a5aa"/></g><g transform="translate(7.471 7.401)"><path d="M2547.983,209.1a8.568,8.568,0,0,1,6.305-2.983c4.161-.128,5.283,4.242,4.6,7.411-1.034,4.794-6.642,6.791-10.67,8.24a.155.155,0,0,0-.037.28,23.161,23.161,0,0,1,10.487,19.58.154.154,0,0,0,.307,0,23.1,23.1,0,0,0-4.675-14.336,30.029,30.029,0,0,0-2.714-3.016c-.141-.136-3.066-2.293-2.283-2.575a22.511,22.511,0,0,0,7.469-4.091c2.434-2.139,4.052-7.264,1.448-9.926-3.136-3.206-7.7-1.8-10.453,1.2-.134.146.083.363.217.217Z" transform="translate(-2547.648 -205.781)" fill="#01285a"/><path d="M2558.4,241.426h0a.236.236,0,0,1-.155-.056.218.218,0,0,1-.073-.168,23.2,23.2,0,0,0-10.453-19.517.229.229,0,0,1-.106-.221.237.237,0,0,1,.159-.194l.055-.02c4.029-1.449,9.547-3.434,10.567-8.165a7.145,7.145,0,0,0-1.107-5.879,4.057,4.057,0,0,0-3.416-1.441,8.514,8.514,0,0,0-6.252,2.958h0a.213.213,0,0,1-.311.011.229.229,0,0,1-.018-.33,8.926,8.926,0,0,1,6.17-3.048,5.89,5.89,0,0,1,4.393,1.849,5.156,5.156,0,0,1,1.346,3.915,9.192,9.192,0,0,1-2.8,6.121,22.916,22.916,0,0,1-7.493,4.106c-.064.023-.077.054-.082.079-.045.281.684,1.019,2.17,2.191.137.108.2.157.221.179a30.011,30.011,0,0,1,2.72,3.023,23.15,23.15,0,0,1,4.691,14.383A.223.223,0,0,1,2558.4,241.426Zm-1.61-34.92a4.27,4.27,0,0,1,.613.6,7.3,7.3,0,0,1,1.138,6.008c-1.038,4.813-6.6,6.814-10.664,8.275l-.055.02a.085.085,0,0,0-.06.069.078.078,0,0,0,.039.076,23.235,23.235,0,0,1,10.521,19.644.066.066,0,0,0,.021.053.087.087,0,0,0,.056.019h0a.072.072,0,0,0,.078-.073,23,23,0,0,0-4.659-14.289,29.886,29.886,0,0,0-2.707-3.008c-.018-.017-.1-.084-.209-.168-1.075-.848-2.3-1.88-2.225-2.334a.249.249,0,0,1,.179-.2,22.787,22.787,0,0,0,7.444-4.077,9.029,9.029,0,0,0,2.747-6.013,5.008,5.008,0,0,0-1.3-3.8A6.37,6.37,0,0,0,2556.786,206.507Zm-3.233-1h-.094a8.773,8.773,0,0,0-6.061,3,.079.079,0,0,0,.009.116.063.063,0,0,0,.1,0,8.66,8.66,0,0,1,6.359-3.007,5.182,5.182,0,0,1,1.262.108A5.734,5.734,0,0,0,2553.553,205.508Z" transform="translate(-2547.224 -205.356)" fill="#01285a"/></g><g transform="translate(9.27 17.924)"><path d="M2567.54,275.409a7.676,7.676,0,0,1-1.868,5.735,3.539,3.539,0,0,1-5.8-.731c-.083-.179-.347-.023-.265.155a3.726,3.726,0,0,0,5.158,1.609c2.51-1.159,3.119-4.307,3.081-6.768a.154.154,0,0,0-.307,0Z" transform="translate(-2559.516 -275.184)" fill="#01285a"/><path d="M2562.411,282.261a3.489,3.489,0,0,1-3.3-2.087.231.231,0,0,1,.021-.235.244.244,0,0,1,.216-.106.2.2,0,0,1,.166.122,3.17,3.17,0,0,0,2.388,1.818,3.763,3.763,0,0,0,3.287-1.107,7.538,7.538,0,0,0,1.847-5.682h0a.217.217,0,0,1,.223-.225.222.222,0,0,1,.236.223c.024,1.611-.231,5.5-3.125,6.838A4.721,4.721,0,0,1,2562.411,282.261Zm-3.078-2.277a.1.1,0,0,0-.074.043.079.079,0,0,0-.007.084,3.649,3.649,0,0,0,5.057,1.572c2.813-1.3,3.061-5.117,3.037-6.7a.074.074,0,0,0-.082-.074.068.068,0,0,0-.074.071,7.677,7.677,0,0,1-1.889,5.789,3.916,3.916,0,0,1-3.422,1.152,3.319,3.319,0,0,1-2.5-1.9c-.013-.029-.03-.034-.042-.035Z" transform="translate(-2559.092 -274.759)" fill="#01285a"/></g><g transform="translate(15.967 6.733)"><path d="M2613.456,201.6a80.47,80.47,0,0,1-.08,8.689,26.829,26.829,0,0,1-.851,4.721c-.74,2.859-5.563,8.721-8.479,3.028-.09-.176-.355-.021-.265.155,1.732,3.381,5.432,2.491,7.564.012,3.443-4,2.571-11.817,2.417-16.605-.006-.2-.313-.2-.306,0Z" transform="translate(-2603.686 -201.375)" fill="#01285a"/><path d="M2606.641,220.086a2.582,2.582,0,0,1-.745-.108,3.86,3.86,0,0,1-2.61-2.176.231.231,0,0,1,.107-.316.211.211,0,0,1,.293.092,4.057,4.057,0,0,0,2.263,2.256q.145.03.295.048a3.878,3.878,0,0,0,.994-.014c2.187-.476,4.3-3.425,4.785-5.3a26.445,26.445,0,0,0,.849-4.708,79.492,79.492,0,0,0,.08-8.681h0a.211.211,0,0,1,.1-.192.245.245,0,0,1,.242-.006.22.22,0,0,1,.117.193c.019.585.048,1.213.079,1.879.222,4.744.527,11.242-2.515,14.778a6.219,6.219,0,0,1-3.71,2.188,3.045,3.045,0,0,1-.311.051A2.855,2.855,0,0,1,2606.641,220.086Zm6.536-18.985a.087.087,0,0,0-.046.012.06.06,0,0,0-.027.058h0a79.674,79.674,0,0,1-.08,8.7,26.6,26.6,0,0,1-.854,4.735,9.269,9.269,0,0,1-3.678,4.906,6.634,6.634,0,0,0,2.367-1.78c3-3.491,2.7-9.953,2.478-14.673-.031-.666-.061-1.295-.08-1.881a.068.068,0,0,0-.037-.064A.1.1,0,0,0,2613.177,201.1Zm-9.677,16.509a.086.086,0,0,0-.037.01.081.081,0,0,0-.041.112,4.194,4.194,0,0,0,1.391,1.628,5.7,5.7,0,0,1-1.261-1.714A.057.057,0,0,0,2603.5,217.611Z" transform="translate(-2603.259 -200.95)" fill="#01285a"/></g><g transform="translate(23.534 10.114)"><path d="M2665.458,223.9a63.157,63.157,0,0,1-1.007,11.09,14.908,14.908,0,0,1-1.411,4.494q-2.775,3.1-6.037,1.128c-1.559-.8-2.442-2.668-3.029-4.2-.07-.182-.367-.1-.3.082,1.353,3.525,4.546,6.548,8.412,4.452,1.89-1.025,2.287-4.058,2.656-5.877a56.9,56.9,0,0,0,1.018-11.172.153.153,0,0,0-.306,0Z" transform="translate(-2653.592 -223.671)" fill="#01285a"/><path d="M2659.142,241.287a4.633,4.633,0,0,1-1.615-.294,8.188,8.188,0,0,1-4.343-4.9.2.2,0,0,1,.027-.2.245.245,0,0,1,.227-.081.23.23,0,0,1,.183.149c.585,1.523,1.453,3.371,2.992,4.157,2.131,1.286,4.128.913,5.94-1.1a14.933,14.933,0,0,0,1.4-4.464,62.642,62.642,0,0,0,1.006-11.077.215.215,0,0,1,.108-.192.246.246,0,0,1,.243,0,.215.215,0,0,1,.107.192,56.76,56.76,0,0,1-1.019,11.187c-.037.18-.073.371-.112.571-.357,1.864-.847,4.416-2.582,5.357A5.351,5.351,0,0,1,2659.142,241.287Zm-3.335-1.525a5.7,5.7,0,0,0,1.772,1.089,4.757,4.757,0,0,0,4.052-.4c1.672-.907,2.154-3.418,2.506-5.253.039-.2.075-.393.112-.573a56.572,56.572,0,0,0,1.016-11.157.064.064,0,0,0-.031-.061.1.1,0,0,0-.092,0,.064.064,0,0,0-.032.061h0a62.823,62.823,0,0,1-1.009,11.1,15.044,15.044,0,0,1-1.418,4.516l-.011.015c-1.869,2.086-3.932,2.47-6.133,1.142A4.015,4.015,0,0,1,2655.807,239.762Zm-2.409-3.8a.092.092,0,0,0-.069.028.05.05,0,0,0,0,.054,10,10,0,0,0,1.863,3.11,10.807,10.807,0,0,1-1.708-3.137.08.08,0,0,0-.065-.053Z" transform="translate(-2653.169 -223.246)" fill="#01285a"/></g><g transform="translate(31.946 18.213)"><path d="M2721.316,277.179a5.632,5.632,0,0,0-3.252,3.792c-.623,1.74-.749,3.525-1.584,5.207a3.865,3.865,0,0,1-7.044-.27c-.083-.179-.347-.023-.265.155.91,1.975,3.391,3.5,5.539,2.253,4.175-2.416,2.041-9.025,6.688-10.841.182-.071.1-.368-.082-.3Z" transform="translate(-2709.08 -277.092)" fill="#01285a"/><path d="M2712.634,288.419a3.633,3.633,0,0,1-1.1-.176,4.9,4.9,0,0,1-2.855-2.572.241.241,0,0,1,.124-.321.2.2,0,0,1,.279.1,4.05,4.05,0,0,0,3.578,2.377h.058a3.579,3.579,0,0,0,3.272-2.109,14.01,14.01,0,0,0,.981-3.044,20.33,20.33,0,0,1,.6-2.155,5.773,5.773,0,0,1,3.3-3.837.2.2,0,0,1,.2.026.244.244,0,0,1,.082.226.231.231,0,0,1-.148.185c-2.381.931-2.946,3.106-3.544,5.41-.542,2.09-1.1,4.251-3.133,5.426A3.346,3.346,0,0,1,2712.634,288.419Zm-3.737-2.938a.078.078,0,0,0-.032.008.09.09,0,0,0-.049.119,4.745,4.745,0,0,0,2.763,2.491,3.244,3.244,0,0,0,2.669-.272c1.975-1.143,2.528-3.273,3.062-5.332.581-2.239,1.182-4.554,3.635-5.513a.082.082,0,0,0,.054-.067.1.1,0,0,0-.027-.085.047.047,0,0,0-.053,0h0a5.637,5.637,0,0,0-3.208,3.747,20.216,20.216,0,0,0-.595,2.139,14.132,14.132,0,0,1-.993,3.076,3.767,3.767,0,0,1-3.468,2.193,4.2,4.2,0,0,1-3.713-2.465A.052.052,0,0,0,2708.9,285.481Z" transform="translate(-2708.656 -276.669)" fill="#01285a"/></g><g transform="translate(26.298 29.281)"><path d="M2680.242,350.178a14.468,14.468,0,0,0-8.331,8.317c-.072.184.225.264.3.081a14.144,14.144,0,0,1,8.117-8.1c.182-.07.1-.367-.081-.3Z" transform="translate(-2671.823 -350.091)" fill="#01285a"/><path d="M2671.629,358.332a.24.24,0,0,1-.187-.085.2.2,0,0,1-.026-.2,14.518,14.518,0,0,1,8.375-8.36.2.2,0,0,1,.2.026.244.244,0,0,1,.082.226.231.231,0,0,1-.149.184,14,14,0,0,0-8.074,8.059.232.232,0,0,1-.185.149A.249.249,0,0,1,2671.629,358.332Zm8.244-8.512a.075.075,0,0,0-.028.006h0a14.367,14.367,0,0,0-8.288,8.274.048.048,0,0,0,0,.053.094.094,0,0,0,.085.027.081.081,0,0,0,.066-.054,14.148,14.148,0,0,1,8.16-8.146.081.081,0,0,0,.054-.066.1.1,0,0,0-.027-.085A.04.04,0,0,0,2679.873,349.819Z" transform="translate(-2671.4 -349.668)" fill="#01285a"/></g></g></g></svg>