<svg xmlns="http://www.w3.org/2000/svg" width="69" height="69" viewBox="0 0 69 69"><defs><style>.a{fill:#faaa1a;}.b{fill:#fff;}</style></defs><g transform="translate(398 -2939)"><path class="a" d="M34.5,0A34.5,34.5,0,1,1,0,34.5,34.5,34.5,0,0,1,34.5,0Z" transform="translate(-398 2939)"/><g transform="translate(-7660.197 3086.652)"><path class="b" d="M7373.729-131.605a12.457,12.457,0,0,0-12.457,12.457,12.457,12.457,0,0,0,12.457,12.457,12.458,12.458,0,0,0,12.458-12.457A12.458,12.458,0,0,0,7373.729-131.605Zm8.7,11.5-3.284,3.657.509,4.634a1.1,1.1,0,0,1-1.558,1.124l-4.372-2-4.372,2a1.1,1.1,0,0,1-1.558-1.124l.509-4.634-3.284-3.657a1.1,1.1,0,0,1,.561-1.811l4.53-1.1,2.684-4.183a1.1,1.1,0,0,1,1.859,0l2.685,4.183,4.53,1.1A1.1,1.1,0,0,1,7382.433-120.1Z" transform="translate(-77.46)"/><g transform="translate(7278.252 -111.673)"><path class="b" d="M7562.655,169.637c-1.645,1.02-1.99,3.44-.772,5.406l5.271,8.506a.579.579,0,0,0,.982.124l3.276-5.11a.477.477,0,0,1,.354-.22l6.035-.659a.579.579,0,0,0,.326-.935l-5.271-8.509c-1.219-1.967-3.542-2.735-5.187-1.714Z" transform="translate(-7542.213 -166.075)"/><path class="b" d="M7288.829,166.527c-1.646-1.021-3.968-.253-5.187,1.714l-5.272,8.509a.579.579,0,0,0,.327.935l6.035.659a.477.477,0,0,1,.354.22l3.277,5.11a.579.579,0,0,0,.982-.124l5.27-8.506c1.218-1.966.873-4.386-.771-5.406Z" transform="translate(-7278.252 -166.075)"/></g></g></g></svg>