<svg xmlns="http://www.w3.org/2000/svg" width="303.004" height="218.039" viewBox="0 0 303.004 218.039"><g transform="translate(2457.352 -146.388)"><path d="M-1337.919,1115.544a15.092,15.092,0,0,0-6.021-1.454,27.927,27.927,0,0,0-3.038-12.972,25.709,25.709,0,0,0-6.158-8.583c-4.646-3.968-11.11-5.13-17.222-4.29a26.784,26.784,0,0,0-12.147-15.982c-10.729-6.292-24.914-4.1-35.309,2.726-13.021,8.555-20.986,24.13-20.762,39.655a21.625,21.625,0,0,0-4.409,1.083c-7.192,2.607-12.823,10.215-11.429,17.737a13.012,13.012,0,0,0,3.04,6.258l2.357,2.646q68.557,0,137.109,0a6.471,6.471,0,0,0-.558-4.444c-1.437-2.669-4.359-4.209-7.271-5.051a24.759,24.759,0,0,0-11.776-.467c.219-4.827.3-10.118-2.7-13.909A10.718,10.718,0,0,0-1337.919,1115.544Z" transform="translate(-852.787 -779.429)" fill="#faaa1a"/><g transform="translate(-2439.426 247.875)"><path d="M-2126.621,955.91a57.47,57.47,0,0,0-.182,9.9h12.861c-.53-8.332,1.024-16.7.8-25.048-.256-9.482-2.807-18.844-3.605-28.308-1.113-13.209,1.2-26.425,2.19-39.639.233-3.1.311-6.438-1.943-9.02a7.3,7.3,0,0,0-2.671-1.832c-2.569-1.078-5.859-1.115-7.674.583a5.937,5.937,0,0,0-1.59,3.883c-.673,5.7.076,11.444.7,17.152A387.962,387.962,0,0,1-2126.621,955.91Z" transform="translate(2159.918 -850.977)" fill="#ad7409"/><path d="M-2322.682,907.631h7.3c-.013-1.213-.106-2.431-.2-3.636-2.628-32.251-6.829-65.223,4.226-96.411,1.845-5.2,2.91-12.432-3.646-14.417a8.505,8.505,0,0,0-1.252-.277,11.629,11.629,0,0,0-8.749,2.61c-2.483,2.108-3.71,4.891-4.767,7.612a111.264,111.264,0,0,0-2.425,74.483C-2329.018,887.582-2324.4,897.526-2322.682,907.631Z" transform="translate(2337.469 -792.794)" fill="#ad7409"/><path d="M-2240.45,1000.54h20.017c.043-.327.077-.653.1-.974.979-12.945-4.575-25.648-5.674-38.588-1.4-16.466,4.405-33.311-.731-49.338-.942-2.939-2.372-5.957-5.385-7.919a11.378,11.378,0,0,0-6.83-1.649,7.352,7.352,0,0,0-3.946,1.4,7.148,7.148,0,0,0-2.425,5.184c-.753,6.949,1.611,13.843,2.741,20.762C-2238.725,953.029-2249.039,978.115-2240.45,1000.54Z" transform="translate(2259.225 -885.703)" fill="#faaa1a"/><path d="M-2126.5,1154.6h10.513c.84-6.115-.348-12.556-1.077-18.76a114.431,114.431,0,0,1,1.82-37.569c.949-4.393,2.078-9.177-.724-13.08a5.1,5.1,0,0,0-1.821-1.621,3.635,3.635,0,0,0-1.223-.362c-2.645-.293-4.2,2.178-4.772,4.174C-2130.092,1109.319-2124.686,1132.17-2126.5,1154.6Z" transform="translate(2158.423 -1039.759)" fill="#ffb833"/><path d="M-2310.318,1073.837c.005.145.012.291.017.437h11.549c-.017-1.477-.169-2.963-.316-4.433a428.583,428.583,0,0,1-1.048-73.407c.19-2.657.038-5.874-2.965-7.217a5.665,5.665,0,0,0-1.954-.468,7.859,7.859,0,0,0-6.487,2.907c-1.621,2.246-1.571,4.951-1.479,7.515Z" transform="translate(2316.691 -959.437)" fill="#ffb833"/></g><g transform="translate(-2264.093 161.399)"><g transform="translate(0 0)"><g transform="translate(49.853 39.309)"><path d="M-812.193,491.237H-828.14a3.368,3.368,0,0,1-3.364-3.364v-7.148a3.368,3.368,0,0,1,3.364-3.364h15.947a3.368,3.368,0,0,1,3.364,3.364v7.148A3.368,3.368,0,0,1-812.193,491.237Zm-15.947-13.429a2.919,2.919,0,0,0-2.916,2.916v7.148a2.919,2.919,0,0,0,2.916,2.916h15.947a2.919,2.919,0,0,0,2.916-2.916v-7.148a2.919,2.919,0,0,0-2.916-2.916Z" transform="translate(831.504 -477.36)" fill="#faaa1a" stroke="#faaa1a" stroke-width="1"/><path d="M-767.824,505.349l-5.607-3.237v6.475Z" transform="translate(782.115 -498.411)" fill="#faaa1a"/></g><g transform="translate(5.683)"><path d="M-824.379,260.774h-6.015c-.354,0-.3.547.054.547h6.015C-823.971,261.321-824.029,260.774-824.379,260.774Z" transform="translate(874.933 -253.851)" fill="#d69e97"/><path d="M-1065.429,314.409h-5.1c-.354,0-.3.547.054.547h5.1C-1065.021,314.956-1065.079,314.409-1065.429,314.409Z" transform="translate(1079.163 -299.466)" fill="#d69e97"/><path d="M-1082.313,214.475h-33.657a10.957,10.957,0,0,0-10.925,10.925h0a10.957,10.957,0,0,0,10.925,10.925h3.838l-6.188,11.749,12.377-11.749h23.631a10.958,10.958,0,0,0,10.925-10.925h0A10.957,10.957,0,0,0-1082.313,214.475Z" transform="translate(1126.895 -214.475)" fill="#faaa1a"/><path d="M-1042.839,260.774h-31.351c-.354,0-.3.547.055.547h31.351C-1042.43,261.321-1042.488,260.774-1042.839,260.774Z" transform="translate(1082.274 -253.851)" fill="#fff"/><g transform="translate(8.574 10.842)"><path d="M-1027.938,286.982h-41.376c-.354,0-.3.547.055.547h41.376C-1027.529,287.529-1027.587,286.982-1027.938,286.982Z" transform="translate(1069.552 -286.982)" fill="#fff"/></g><path d="M-985.592,314.409h-26.43c-.354,0-.3.547.055.547h26.429C-985.184,314.956-985.242,314.409-985.592,314.409Z" transform="translate(1029.402 -299.466)" fill="#fff"/></g><path d="M-1164.9,715.92v8.536a2.242,2.242,0,0,0,2.242,2.241h13.315a2.241,2.241,0,0,0,2.241-2.241V715.92a2.241,2.241,0,0,0-2.241-2.242h-13.315A2.242,2.242,0,0,0-1164.9,715.92Zm8.673,4.568-5.853-3.987a.254.254,0,0,1-.067-.353h0a.254.254,0,0,1,.353-.067l5.571,3.795a.254.254,0,0,0,.283,0l5.736-3.8a.254.254,0,0,1,.352.071h0a.254.254,0,0,1-.071.352l-6.02,3.99A.254.254,0,0,1-1156.228,720.487Z" transform="translate(1164.901 -639.032)" fill="#faaa1a"/></g></g><g transform="translate(-2420.144 146.388)"><g transform="translate(18.776 8.313)"><rect width="208.24" height="116.954" rx="18" transform="translate(1.039 208.24) rotate(-90)" fill="#01285a"/><rect width="108.326" height="200.067" rx="16" transform="translate(5.353 3.697)" fill="#fff"/><g transform="translate(0 35.016)"><path d="M1.022,0h0A1.022,1.022,0,0,1,2.044,1.022v9.22a1.022,1.022,0,0,1-1.022,1.022h0A1.022,1.022,0,0,1,0,10.242V1.022A1.022,1.022,0,0,1,1.022,0Z" fill="#463645"/><path d="M1.022,0h0A1.022,1.022,0,0,1,2.044,1.022v9.22a1.022,1.022,0,0,1-1.022,1.022h0A1.022,1.022,0,0,1,0,10.242V1.022A1.022,1.022,0,0,1,1.022,0Z" transform="translate(0 20.439)" fill="#463645"/></g><rect width="94.364" height="46.768" transform="translate(11.814 38.648)" fill="#eee"/><rect width="94.364" height="46.768" transform="translate(11.814 90.271)" fill="#eee"/><rect width="94.364" height="46.768" transform="translate(11.814 141.894)" fill="#eee"/></g><g transform="translate(0 0)"><path d="M-2186.963,170.35h-21.553l34.923-17.859h12.823Z" transform="translate(2208.517 -152.491)" fill="#faaa1a"/><path d="M-2042.823,170.35h-21.553l26.193-17.859h12.822Z" transform="translate(2085.929 -152.491)" fill="#e6e6e6"/><path d="M-1898.682,170.35h-21.553l17.461-17.859h12.823Z" transform="translate(1963.342 -152.491)" fill="#faaa1a"/><path d="M-1754.541,170.35h-21.553l8.731-17.859h12.823Z" transform="translate(1840.754 -152.491)" fill="#e6e6e6"/><path d="M-1610.4,170.35h-21.553V152.491h12.823Z" transform="translate(1718.167 -152.491)" fill="#faaa1a"/><path d="M-1515.917,170.35h-21.554l-8.731-17.859h12.823Z" transform="translate(1645.237 -152.491)" fill="#e6e6e6"/><path d="M-1421.434,170.35h-21.553l-17.461-17.859h12.823Z" transform="translate(1572.307 -152.491)" fill="#faaa1a"/><path d="M0,0H21.553a0,0,0,0,1,0,0V5.377A10.777,10.777,0,0,1,10.777,16.154h0A10.777,10.777,0,0,1,0,5.377V0A0,0,0,0,1,0,0Z" transform="translate(0 17.857)" fill="#faaa1a"/><path d="M0,0H21.553a0,0,0,0,1,0,0V5.377A10.777,10.777,0,0,1,10.777,16.154h0A10.777,10.777,0,0,1,0,5.377V0A0,0,0,0,1,0,0Z" transform="translate(21.553 17.857)" fill="#e3e3e3"/><path d="M0,0H21.553a0,0,0,0,1,0,0V5.377A10.777,10.777,0,0,1,10.777,16.154h0A10.777,10.777,0,0,1,0,5.377V0A0,0,0,0,1,0,0Z" transform="translate(43.107 17.857)" fill="#faaa1a"/><path d="M0,0H21.553a0,0,0,0,1,0,0V5.377A10.777,10.777,0,0,1,10.777,16.154h0A10.777,10.777,0,0,1,0,5.377V0A0,0,0,0,1,0,0Z" transform="translate(64.66 17.857)" fill="#e3e3e3"/><path d="M0,0H21.553a0,0,0,0,1,0,0V5.377A10.777,10.777,0,0,1,10.777,16.154h0A10.777,10.777,0,0,1,0,5.377V0A0,0,0,0,1,0,0Z" transform="translate(86.213 17.857)" fill="#faaa1a"/><path d="M0,0H21.553a0,0,0,0,1,0,0V5.377A10.777,10.777,0,0,1,10.777,16.154h0A10.777,10.777,0,0,1,0,5.377V0A0,0,0,0,1,0,0Z" transform="translate(107.766 17.857)" fill="#e3e3e3"/><path d="M0,0H21.553a0,0,0,0,1,0,0V5.377A10.777,10.777,0,0,1,10.777,16.154h0A10.777,10.777,0,0,1,0,5.377V0A0,0,0,0,1,0,0Z" transform="translate(129.32 17.857)" fill="#faaa1a"/><rect width="150.873" height="1.753" transform="translate(0.001 17.858)" fill="#e3e3e3" style="mix-blend-mode:soft-light;isolation:isolate"/></g></g><g transform="translate(-2338.623 184.555)"><g transform="translate(20.772 161.53)"><g transform="translate(0 4.355)"><path d="M-1519.869,1481.312a40.547,40.547,0,0,0,5.84,3.711c1.9.764,3.158.562,3.146,1.559a26.439,26.439,0,0,1-.687,4.631h-8.357s-.951-4.545-1.85-4.643-.354,4.643-.354,4.643h-1.418s-1.253-12.036-.74-12.473S-1522.307,1483.078-1519.869,1481.312Z" transform="translate(1524.413 -1478.712)" fill="#01285a"/></g><path d="M-1510.694,1461.067c.818.277-.765.647-4.052.637-1.507,0-6.706-3.629-7.186-4.862s-.18-6.407-.18-6.407c.209-1.068,4.463-1.416,4.331.718-.1,1.589-.16,4.245,1.349,6.224C-1514.91,1459.373-1511.812,1460.688-1510.694,1461.067Z" transform="translate(1522.534 -1449.589)" fill="#f7a5aa"/></g><g transform="translate(8.226 161.53)"><path d="M-1600.587,1473.233a2.068,2.068,0,0,1,1.76,1.7c.285,1.687-1.374,3.355-.476,5.134a7.547,7.547,0,0,1,.295,4.093,11.519,11.519,0,0,1-1.624,2.393h-6.6a2.254,2.254,0,0,1-.73-3.133,10.865,10.865,0,0,1,1.674-1.516,15.207,15.207,0,0,0,1.577-1.91l3.086-.375Z" transform="translate(1608.315 -1469.697)" fill="#01285a"/><path d="M-1593.255,1449.589s-.072,4.872.129,6.12l-1.123,3.63a8.4,8.4,0,0,1-1.612,3.34.9.9,0,0,0-.272.418c-.059.345.67.637.67.637l4.827.108a10.244,10.244,0,0,0,1.018-4.108c-.1-.849-.388-1.663-.425-2.521a9.018,9.018,0,0,1,.158-1.764c.158-1.012.463-4.849.621-5.86Z" transform="translate(1597.957 -1449.589)" fill="#f7a5aa"/></g><path d="M-1590.274,1184.608c.622-5.678.786-11.572.786-12.277,0-4.875-.406-7.443-1.947-7.733s-7.132-.57-7.706,1.506a48.8,48.8,0,0,1-2.109,6.812s.694,12.337.846,15.509c.733,10.075,1.68,21.508,1.68,21.508h6.648S-1591.014,1191.353-1590.274,1184.608Z" transform="translate(1610.533 -1045.512)" fill="#01285a"/><path d="M-1511.178,1155.144c2.811-4.972,5.286-10.324,5.564-10.971,1.922-4.48-.686-10.621-1.988-11.5s-8.529,2.268-10.209,4.6c-2.943,4.093-13.242,45.546-13.242,45.546l6.854,1.056C-1522.053,1178.758-1514.518,1161.051-1511.178,1155.144Z" transform="translate(1550.832 -1018.407)" fill="#01285a"/><path d="M-1408.044,606.739a7.076,7.076,0,0,1,6.344,1.707c1.707,1.652,11.422,16.091,11.422,16.091s-7.587,7.373-9.408,5.827C-1400.845,629.38-1408.044,606.739-1408.044,606.739Z" transform="translate(1446.217 -571.098)" fill="#d69e97"/><g transform="translate(45.923 20.262)"><path d="M-1332.859,504.839l-.567,10.693s-3.071,1.512-5.16.655c-.975-.044,2.408-10.108,2.408-10.108Z" transform="translate(1341.373 -504.839)" fill="#f7a5aa"/><path d="M-1354.613,570.457l8.278.054s1.7,26.176.854,28.9c-.958,3.074-6.809,6.255-10.125.235C-1357.413,596.368-1354.613,570.457-1354.613,570.457Z" transform="translate(1356.213 -560.645)" fill="#d69e97"/></g><path d="M-1434.21,435.93a40.6,40.6,0,0,1,2.9,10.326,17.626,17.626,0,0,1-2.069,11.766,22.509,22.509,0,0,0-2.106-19.064Z" transform="translate(1469.551 -425.972)" fill="#01285a"/><path d="M-1615.89,398.372c-1.348-2.337-9.071-4.283-12.962,1.389a9.744,9.744,0,0,0-1.643,4.153c-2.519,18.159,1.643,19.76-5.776,43.109a23.653,23.653,0,0,0,5.33-.5,14.785,14.785,0,0,0,8.607-5.085c3.246-4.188,3.287-10.027,2.373-15.246s-2.636-10.377-2.4-15.671a10.055,10.055,0,0,1,1.436-5.2,4.948,4.948,0,0,1,4.63-2.314Z" transform="translate(1640.317 -392.063)" fill="#01285a"/><g transform="translate(16.335 33.541)"><path d="M-1532.247,595.745c0,3.05-4.919,12.076-12.525,12.076s-9.312-10.213-9.312-13.263c0,0,2.711-1.243,10.306-.828A41.263,41.263,0,0,1-1532.247,595.745Z" transform="translate(1554.085 -593.644)" fill="#f7a5aa"/></g><g transform="translate(21.902 26.045)"><path d="M-1516.855,543.515V556.02h10.942V543.515Z" transform="translate(1516.855 -543.515)" fill="#f7a5aa"/><path d="M-1505.913,543.515h-10.942v7.239a21.108,21.108,0,0,0,10.942-3.851v-3.388Z" transform="translate(1516.855 -543.515)" fill="#01285a"/></g><g transform="translate(15.692 5.426)"><g transform="translate(0 9.135)"><g transform="translate(19.223)"><path d="M-1425.154,468.489c-.036-.1-.075-.205-.115-.306a2.692,2.692,0,0,0-.854-1.277,1.451,1.451,0,0,0-1.277-.092,4.088,4.088,0,0,0-2.43,2.336,4.569,4.569,0,0,0,2.965,2.519,1.792,1.792,0,0,0,1.965-1.717A3.7,3.7,0,0,0-1425.154,468.489Z" transform="translate(1429.83 -466.71)" fill="#f7a5aa"/></g><g transform="translate(0 6.143)"><path d="M-1558.222,510.828c-.028-.106-.052-.212-.074-.318a2.3,2.3,0,0,1,.091-1.572,2.141,2.141,0,0,1,1.31-.9,5.822,5.822,0,0,1,4.115.3,4.638,4.638,0,0,1-1.553,3.927,2.518,2.518,0,0,1-3.217-.1A2.977,2.977,0,0,1-1558.222,510.828Z" transform="translate(1558.389 -507.794)" fill="#f7a5aa"/></g></g><g transform="translate(1.564)"><path d="M-1528.5,418.706c1.227,4.868-1.708,10.568-6,11.65s-9.581-2.545-10.808-7.413c-.041-.162-2.368-6.505-2.368-6.505a8.23,8.23,0,0,1,5.969-9.991l2.257-.569c4.4-1.109,8.076,1.444,9.193,5.843C-1529.635,414.177-1528.547,418.517-1528.5,418.706Z" transform="translate(1547.93 -405.619)" fill="#f7a5aa"/><g transform="translate(11.947 13.679)"><path d="M-1466.289,511.262a1.149,1.149,0,0,0,1.113-1.193.189.189,0,0,1,.377-.026,1.528,1.528,0,0,1-1.463,1.6.194.194,0,0,1-.2-.175.191.191,0,0,1,.175-.2Z" transform="translate(1466.699 -507.962)" fill="#463645"/><path d="M-1466.238,499a4.068,4.068,0,0,1-1.344-1.775.235.235,0,0,0-.425.2,4.522,4.522,0,0,0,1.5,1.959c.254.162.526-.22.271-.383Z" transform="translate(1468.033 -497.097)" fill="#463645"/></g><path d="M-1503.889,513.841c.076.267.784.3,1.58.072s1.38-.628,1.3-.9-.784-.3-1.58-.072S-1503.965,513.574-1503.889,513.841Z" transform="translate(1510.48 -496.769)" fill="#da6d6d"/><path d="M-1450.115,499.547c.076.267.783.3,1.58.072s1.38-.628,1.3-.9-.784-.3-1.58-.072S-1450.191,499.28-1450.115,499.547Z" transform="translate(1464.747 -484.612)" fill="#da6d6d"/><g transform="translate(13.861 8.966)"><path d="M-1455.222,466.321c-.079-.3.317-.725.728-.738.995-.031,2.357.463,2.294.87-.034.219-.384-.241-1.5-.328S-1455.142,466.617-1455.222,466.321Z" transform="translate(1455.232 -465.582)" fill="#463645"/><g transform="translate(0.866 1.696)"><path d="M-1448.163,481.182h0a.818.818,0,0,1-1-.572l-.245-.9a.818.818,0,0,1,.572-1h0a.818.818,0,0,1,1,.572l.245.9A.818.818,0,0,1-1448.163,481.182Z" transform="translate(1449.438 -478.418)" fill="#463645"/><path d="M-1446.518,477.88q.663-.247,1.3-.559a.215.215,0,0,0,.076-.293.219.219,0,0,0-.293-.076,12.875,12.875,0,0,1-1.194.515.218.218,0,0,0-.151.262.216.216,0,0,0,.262.152Z" transform="translate(1447.185 -476.925)" fill="#463645"/></g></g><g transform="translate(5.845 11.393)"><path d="M-1505.934,482.36c0-.307-.489-.622-.891-.53-.97.221-2.164,1.043-2,1.42.088.2.531-.446,1.373-.7S-1505.936,482.667-1505.934,482.36Z" transform="translate(1508.841 -481.814)" fill="#463645"/><g transform="translate(0.21 1.386)"><path d="M-1506.162,495.339h0a.818.818,0,0,1-1-.572l-.245-.9a.818.818,0,0,1,.572-1h0a.818.818,0,0,1,1,.572l.245.9A.817.817,0,0,1-1506.162,495.339Z" transform="translate(1507.436 -492.575)" fill="#463645"/><path d="M-1504.517,492.037q.663-.247,1.3-.559a.215.215,0,0,0,.076-.292.219.219,0,0,0-.292-.076,12.955,12.955,0,0,1-1.194.515.218.218,0,0,0-.151.262.216.216,0,0,0,.262.152Z" transform="translate(1505.184 -491.082)" fill="#463645"/></g></g><g transform="translate(10.391 17.053)"><path d="M-1477.9,520.659l3.734-.963c.41-.106.771.054.745.326-.091.94-.446,2.842-1.827,3.2s-2.612-1.137-3.146-1.915C-1478.546,521.079-1478.307,520.765-1477.9,520.659Z" transform="translate(1478.438 -519.663)" fill="#bf3939"/><path d="M-1473.049,534.893a2.581,2.581,0,0,0,2.388.982,1.725,1.725,0,0,0,.717-.385A2.4,2.4,0,0,0-1473.049,534.893Z" transform="translate(1473.855 -532.318)" fill="#f4777c"/><path d="M-1474.815,521.078s.448.755,2.078.335,1.5-1.257,1.5-1.257Z" transform="translate(1475.357 -520.082)" fill="#fff"/></g></g></g><g transform="translate(14.237 0)"><path d="M-1568.068,380.793a14.677,14.677,0,0,0,.683,5.545c.464,1.558,6.228,9.716,7.5,10.551-.266-3.485-4.372-11.638-3.647-15.59,6.314,5.5,17.483.535,17.483.535-1.226-4.593-2.257-8.085-4.6-10.126a10.227,10.227,0,0,0-8.868-2.063,6.857,6.857,0,0,0-4.478,6.207,4.409,4.409,0,0,0-3.7,3.166A7.947,7.947,0,0,0-1568.068,380.793Z" transform="translate(1568.12 -369.335)" fill="#01285a"/></g><g transform="translate(9.966 33.454)"><path d="M-1567.159,595.1a31.176,31.176,0,0,0,3.258,11.328c.779,1.53,1.708,3.075,1.766,4.791a6.686,6.686,0,0,1-1.986,4.651,15.274,15.274,0,0,1-2.838,2.28,67.453,67.453,0,0,0,.325,7.933c.1,1.041.188,6.115-.525,6.882-.592.637-1.733,1.083-1.538,1.931.124.536.75.779,1.06,1.235a1.626,1.626,0,0,1-.677,2.152,4.72,4.72,0,0,1-2.446.475l-23.7-2.6c-1.152.256-2.186-.982-2.22-2.162a7.024,7.024,0,0,1,1.136-3.311c4.695-9.024,4.373-24.351-.822-33.1l5.664-4.519s13.467,7.822,15.473,7.05,5.094-5.558,5.094-5.558Z" transform="translate(1596.683 -593.061)" fill="#d69e97"/><path d="M-1563.386,593.859l1-.8s13.466,7.822,15.473,7.05,5.094-5.558,5.094-5.558l1.373.25c-.017,3.366-5.026,7.572-6.915,8.971C-1553.152,601.668-1560.489,599.4-1563.386,593.859Z" transform="translate(1568.365 -593.061)" fill="#deb1ac"/></g><path d="M-1654.328,629.855c2.619-3.855,7.779-16.453,7.779-16.453a15.417,15.417,0,0,0,.817-5.2c-.117-1.818-1.052-5.722-3.361-6.175s-7.738,4.953-7.738,4.953-4.7,13.773-6.393,20.185c-.882,3.347,3.993,6.536,5.217,6.372A4.243,4.243,0,0,0-1654.328,629.855Z" transform="translate(1663.33 -567.207)" fill="#d69e97"/><path d="M-1541.211,479.625c1.594,4.607,3.663,9.636,8.377,11.747,1.127.5,4.15,1.293,3.764,1.292a10.455,10.455,0,0,1-6.368-2.4,16.868,16.868,0,0,1-4.61-6.12,42.185,42.185,0,0,1-1.741-4.369c-.126-.364.453-.517.578-.154Z" transform="translate(1559.978 -462.957)" fill="#01285a"/><path d="M-1610.968,929.713c.04-5.138-1.414-18.42-1.339-18.875-2.594-8.43-1.164-20.861,3.864-28.121h16.9c-3.248,5.716-8.214,21.951-8.214,21.951s-.96,16.6-.489,23.162C-1599.723,935.074-1611.009,934.917-1610.968,929.713Z" transform="translate(1621.016 -805.951)" fill="#01285a"/><path d="M-1512.389,928.681c-1.966-4.748-7.515-26.111-8.047-29.3l-3.473-3.589s-2.074-7.8-.975-13.074h18.224l2.836,13.772s1.047,19.878,3.075,26.474C-1498.616,929.906-1510.4,933.489-1512.389,928.681Z" transform="translate(1545.859 -805.951)" fill="#01285a"/><g transform="translate(0 56.874)"><path d="M-1617.266,903.6l-3.335-9.247s3.426-1.335,5.265-1.008c.779-.146,1.406,10.274,1.406,10.274Z" transform="translate(1626.99 -871.82)" fill="#f7a5aa"/><path d="M-1650.552,773.22l-6.1,2.821s-6.732-19.522-6.675-21.972a5.081,5.081,0,0,1,8.684-2.814C-1652.245,753.405-1650.552,773.22-1650.552,773.22Z" transform="translate(1663.33 -749.688)" fill="#d69e97"/></g><path d="M-1599.993,935.2c-1.545-.175-3.317.089-4.375-1.073a.682.682,0,0,0-.821-.149l-2.55.589a.671.671,0,0,0-.58.708c.007.08-.453,1.839-.573,2.64-.081.544,1.065,2.525,1.73,2.392,5.344-1.07,3.9-2.785,3.9-2.785s.914-.265,2.408-.711C-1599.993,936.557-1599.051,935.309-1599.993,935.2Z" transform="translate(1617.035 -849.485)" fill="#f7a5aa"/><g transform="translate(12.801 45.923)"><path d="M-1426.412,865.541l1.968-.81a.232.232,0,0,0,.157-.276.226.226,0,0,0-.276-.157l-1.968.81a.232.232,0,0,0-.157.276.226.226,0,0,0,.276.157Z" transform="translate(1449.279 -836.198)" fill="#01285a"/><path d="M-1397.55,684.851a8.164,8.164,0,0,1,.8,5.164,8.02,8.02,0,0,1-2.292,4.324,8.207,8.207,0,0,1-2.22,1.55.218.218,0,0,0-.111.194q.314,4.527.629,9.055c.02.286.469.289.448,0q-.314-4.528-.629-9.055l-.111.194a8.659,8.659,0,0,0,3.7-3.4,8.442,8.442,0,0,0,1.09-5.261,8.614,8.614,0,0,0-.924-2.994c-.134-.256-.521-.029-.387.226Z" transform="translate(1427.738 -683.306)" fill="#01285a"/><path d="M-1575.517,676.726a32.613,32.613,0,0,1,1.245,9.5q-.024,1.365-.162,2.725c-.029.287.42.285.449,0a33.031,33.031,0,0,0-.452-9.66q-.266-1.357-.647-2.688a.225.225,0,0,0-.433.119Z" transform="translate(1575.855 -676.449)" fill="#01285a"/><path d="M-1576.367,712.462a13.827,13.827,0,0,1-1.321,2.875.224.224,0,0,0,.387.226,14.313,14.313,0,0,0,1.367-2.983c.09-.275-.343-.393-.432-.119Z" transform="translate(1577.722 -706.944)" fill="#01285a"/></g><path d="M-1353.306,637.471V647.89a.224.224,0,0,0,.449,0V637.471a.224.224,0,0,0-.449,0Z" transform="translate(1399.664 -597.192)" fill="#01285a"/><g transform="translate(23.518 78.088)"><path d="M-1447.863,1152.254l6.075-3.848c.243-.154.019-.542-.226-.387l-6.076,3.848c-.243.154-.018.542.227.387Z" transform="translate(1456.845 -1109.641)" fill="#6b5e6a"/><path d="M-1505.712,956.765a9.8,9.8,0,0,0,2.811-4.04c.083-.235-.29-.336-.372-.1a9.41,9.41,0,0,1-2.711,3.869c-.187.165.087.437.273.273Z" transform="translate(1506.048 -943.38)" fill="#6b5e6a"/><path d="M-1490.034,891.774l.679,5.327c.036.282.485.286.449,0q-.339-2.664-.679-5.327c-.036-.283-.485-.286-.449,0Z" transform="translate(1492.43 -891.561)" fill="#6b5e6a"/></g><g transform="translate(48.479 1.811)"><g transform="translate(0.67 16.142)"><path d="M-1332.436,499.919c-2.261-.266-2.239-2.016-2.188-3.227a73.023,73.023,0,0,1,.581-7.293l3.763,5.65C-1328.313,497.306-1329.628,500.25-1332.436,499.919Z" transform="translate(1334.637 -489.4)" fill="#f7a5aa"/></g><path d="M-1337.946,435.019l-1.173,1.114.142,7.167,1.225,1.508Z" transform="translate(1339.118 -427.008)" fill="#01285a"/><g transform="translate(1.062)"><rect width="5.922" height="8.378" rx="2.961" transform="translate(7.494 24.879) rotate(178.862)" fill="#01285a"/><path d="M-1316.895,388.406c2.6-.052,11.989-5.849,11.989-5.849s.109-1.041,3.6-1.111l.48,24.171c-3.553.071-3.639-.967-3.639-.967s-9.615-5.42-12.212-5.369l-10.958.218-.1-5.2-.01-.48-.1-5.2Z" transform="translate(1328.475 -381.446)" fill="#01285a"/><path d="M-1289.834,492h0c2.131-.048,3.65-.642,4.517-1.765a4.17,4.17,0,0,0,.692-3.272.312.312,0,0,0-.375-.231.311.311,0,0,0-.231.375h0a3.6,3.6,0,0,1-.583,2.753c-.747.963-2.1,1.474-4.033,1.517a.312.312,0,0,0-.3.319A.312.312,0,0,0-1289.834,492Z" transform="translate(1296.411 -470.981)" fill="#01285a"/><path d="M.6,0h0a.6.6,0,0,1,.6.6V12.431a.6.6,0,0,1-.6.6h0a.6.6,0,0,1-.6-.6V.6A.6.6,0,0,1,.6,0Z" transform="translate(0 5.86) rotate(-1.123)" fill="#01285a"/></g><g transform="translate(3.035 17.767)"><g transform="translate(0 2.206)"><rect width="8.631" height="2.519" rx="1.259" transform="matrix(0.998, -0.058, 0.058, 0.998, 0, 0.502)" fill="#f7a5aa"/></g><g transform="translate(0.042 0)"><path d="M1.259,0H7.372A1.259,1.259,0,0,1,8.631,1.259v0A1.259,1.259,0,0,1,7.372,2.519H1.259A1.259,1.259,0,0,1,0,1.259v0A1.259,1.259,0,0,1,1.259,0Z" transform="matrix(0.998, -0.058, 0.058, 0.998, 0, 0.502)" fill="#f7a5aa"/></g><g transform="translate(1.167 4.588)"><rect width="6.95" height="2.028" rx="1.014" transform="translate(0 0.405) rotate(-3.337)" fill="#f7a5aa"/></g><g transform="translate(1.803 6.416)"><path d="M.853,0H4.994a.853.853,0,0,1,.853.853v0a.853.853,0,0,1-.853.853H.853A.853.853,0,0,1,0,.853v0A.853.853,0,0,1,.853,0Z" transform="matrix(0.998, -0.059, 0.059, 0.998, 0, 0.342)" fill="#f7a5aa"/></g></g></g><path d="M-1618.921,770.26l-3.469-1.4c-.268-.108-.384.326-.119.432l3.469,1.4c.267.108.384-.326.119-.432Z" transform="translate(1628.741 -709.106)" fill="#01285a"/></g><path d="M-2155.091,1563.8h-301.519a.745.745,0,0,1-.743-.743h0a.745.745,0,0,1,.743-.743h301.519a.745.745,0,0,1,.743.743h0A.745.745,0,0,1-2155.091,1563.8Z" transform="translate(0 -1199.377)" fill="#01285a"/></g></svg>