<svg xmlns="http://www.w3.org/2000/svg" width="69" height="69" viewBox="0 0 69 69"><defs><style>.a{fill:#faaa1a;}.b{fill:#fff;}</style></defs><g transform="translate(-73 -2645.926)"><path class="a" d="M34.5,0A34.5,34.5,0,1,1,0,34.5,34.5,34.5,0,0,1,34.5,0Z" transform="translate(73 2645.926)"/><g transform="translate(-221.191 2488.6)"><g transform="translate(305.191 172.326)"><path class="b" d="M337.5,198.014a6.509,6.509,0,0,1,.164-3.574,6.7,6.7,0,0,1,3.463-3.879,6.317,6.317,0,0,1,3.936-.57.54.54,0,0,0,.618-.543V174.521a2.195,2.195,0,0,0-2.2-2.2H313.848a2.2,2.2,0,0,0-2.2,2.2v14.9a.542.542,0,0,0,.618.541,6.368,6.368,0,0,1,4.641,1.131,6.469,6.469,0,0,1,2.751,6.917.542.542,0,0,0,.535.657h1.427a.549.549,0,0,0,.528-.43,6.616,6.616,0,0,1,12.858,0,.549.549,0,0,0,.528.43h1.427A.541.541,0,0,0,337.5,198.014Zm-3.57-12.231-6.635,4.063a1.622,1.622,0,0,1-2.47-1.383v-8.128a1.622,1.622,0,0,1,2.47-1.382l6.635,4.063A1.622,1.622,0,0,1,333.929,185.783Zm-20.716,15.163a4.429,4.429,0,1,0-4.429-4.429A4.43,4.43,0,0,0,313.214,200.946Zm26.3-4.429a4.429,4.429,0,1,0,4.429-4.429A4.429,4.429,0,0,0,339.518,196.517Zm8.84,6.663h-8.823a3.6,3.6,0,0,0-3.025,1.652.567.567,0,0,0,.123.754,5.8,5.8,0,0,1,1.945,2.93.551.551,0,0,0,.527.415h11.767a1.1,1.1,0,0,0,1.1-1.1v-1.042A3.611,3.611,0,0,0,348.359,203.179Zm-30.734,0H308.8a3.611,3.611,0,0,0-3.611,3.611v1.042a1.1,1.1,0,0,0,1.1,1.1h11.767a.551.551,0,0,0,.527-.415,5.8,5.8,0,0,1,1.945-2.93.566.566,0,0,0,.123-.754A3.6,3.6,0,0,0,317.625,203.179Z" transform="translate(-305.191 -172.326)"/><path class="b" d="M327.214,202.188a4.429,4.429,0,1,0-4.429-4.429A4.43,4.43,0,0,0,327.214,202.188Zm4.411,2.234H322.8a3.611,3.611,0,0,0-3.611,3.611v1.042a1.1,1.1,0,0,0,1.1,1.1h13.85a1.1,1.1,0,0,0,1.1-1.1v-1.042A3.611,3.611,0,0,0,331.625,204.422Z" transform="translate(-303.824 -170.275)"/></g></g></g></svg>