<svg xmlns="http://www.w3.org/2000/svg" width="170" height="25.139" viewBox="0 0 170 25.139"><g transform="translate(36.236)"><path d="M93.223,101.268V76.639h3.11v10.58a5.842,5.842,0,0,1,5.316-2.79c4.881,0,7.389,3.81,7.389,8.572,0,4.865-2.708,8.709-7.489,8.709a5.713,5.713,0,0,1-5.215-2.824v2.382Zm7.857-14.015c-2.775,0-4.781,2.211-4.781,5.749s2.006,5.851,4.781,5.851c2.875,0,4.748-2.313,4.748-5.851S103.989,87.253,101.08,87.253Z" transform="translate(-93.223 -76.639)" fill="#fff"/><path d="M142.753,102.78a7.3,7.3,0,0,1-7.221,5.171c-4.313,0-8.091-3.2-8.091-8.743,0-5.137,3.645-8.64,7.69-8.64,4.948,0,7.723,3.47,7.723,8.572a7.353,7.353,0,0,1-.067,1.021h-12.1a4.818,4.818,0,0,0,4.848,4.967,4.392,4.392,0,0,0,4.513-3.3Zm-3.176-5.2a4.084,4.084,0,0,0-4.413-4.184,4.36,4.36,0,0,0-4.38,4.184Z" transform="translate(-108.785 -82.812)" fill="#fff"/><path d="M162.516,107.008V90.1h4.848V92.04a5.751,5.751,0,0,1,4.781-2.449,5.122,5.122,0,0,1,4.915,2.653,5.667,5.667,0,0,1,5.148-2.653c3.143,0,6.152,1.871,6.152,6.463v10.954h-4.915v-9.8a2.545,2.545,0,0,0-2.641-2.858,2.726,2.726,0,0,0-2.775,2.892v9.763h-5.015v-9.8a2.553,2.553,0,0,0-2.674-2.858,2.729,2.729,0,0,0-2.742,2.926v9.73Z" transform="translate(-124.737 -82.379)" fill="#fff"/><path d="M220.841,97.245l3.912-.612c.9-.136,1.2-.579,1.2-1.157,0-.987-.836-1.838-2.441-1.838a2.69,2.69,0,0,0-2.842,2.483l-4.413-.918c.2-2.416,2.407-5.613,7.289-5.613,5.383,0,7.355,3.061,7.355,6.531v8.267a16.852,16.852,0,0,0,.2,2.619h-4.581a8.429,8.429,0,0,1-.167-1.9,5.217,5.217,0,0,1-4.681,2.381c-3.645,0-5.751-2.45-5.751-5.137C215.927,99.354,218.1,97.653,220.841,97.245Zm5.116,3.13v-.748l-3.143.51c-1.07.17-1.873.68-1.873,1.871a1.727,1.727,0,0,0,1.973,1.735C224.419,103.742,225.957,102.994,225.957,100.375Z" transform="translate(-149.029 -82.379)" fill="#fff"/><path d="M261.813,95.474a6.765,6.765,0,0,0-1.605-.17c-2.039,0-3.878,1.225-3.878,4.593v7.382h-5.082V90.371h4.914v2.279a4.675,4.675,0,0,1,4.313-2.45,4.943,4.943,0,0,1,1.337.17Z" transform="translate(-165.093 -82.649)" fill="#fff"/><path d="M286.5,91.471l6.62,9.8H286.9l-3.911-5.953-1.638,1.8v4.15h-5.082V76.639h5.082v13.4l5.048-5.681h6.587Z" transform="translate(-176.471 -76.639)" fill="#fff"/><path d="M324.408,102.144c-.8,2.926-3.444,5.375-7.656,5.375-4.58,0-8.659-3.334-8.659-9.015,0-5.443,3.979-8.913,8.292-8.913,5.148,0,8.325,3.231,8.325,8.674a11,11,0,0,1-.1,1.6H313.04a3.617,3.617,0,0,0,3.778,3.266,3.211,3.211,0,0,0,3.343-2.211Zm-4.614-5.613a3,3,0,0,0-3.343-2.857,3.186,3.186,0,0,0-3.31,2.857Z" transform="translate(-190.945 -82.379)" fill="#fff"/></g><path d="M48.491,101.5H29.163a2.342,2.342,0,0,1-1.739-.763,2.565,2.565,0,0,1-.661-1.878l1.189-22.216H49.744l1.189,22.216a2.54,2.54,0,0,1-.662,1.856A2.43,2.43,0,0,1,48.491,101.5ZM29.17,99.038h19.32a.034.034,0,0,0,.029-.013.036.036,0,0,0,.011-.031V98.99L47.465,79.1H30.231l-1.065,19.9A.124.124,0,0,0,29.17,99.038Z" transform="translate(-26.759 -76.639)" fill="#fff"/><path d="M37.738,85.571h2.43v2.792a3.246,3.246,0,0,0,1.314,2.622,3.837,3.837,0,0,0,5.686-1.073,3.2,3.2,0,0,0,.384-1.583V85.573h2.43v2.966a5.046,5.046,0,0,1-1.364,3.546,6.077,6.077,0,0,1-3.753,2.1,6.213,6.213,0,0,1-6.279-2.8,5.148,5.148,0,0,1-.848-2.8Z" transform="translate(-31.752 -80.597)" fill="#fff"/></svg>