<svg id="logo_cor" data-name="logo cor" xmlns="http://www.w3.org/2000/svg" xmlns:xlink="http://www.w3.org/1999/xlink" width="146" height="21.139" viewBox="0 0 146 21.139">
  <defs>
    <linearGradient id="linear-gradient" x1="3.454" y1="0.749" x2="8.114" y2="1.107" gradientUnits="objectBoundingBox">
      <stop offset="0" stop-color="#fbae18"/>
      <stop offset="0.213" stop-color="#faaa1a"/>
      <stop offset="0.525" stop-color="#f89f23"/>
      <stop offset="0.77" stop-color="#f58c31"/>
      <stop offset="0.995" stop-color="#f27444"/>
      <stop offset="1" stop-color="#f27444"/>
    </linearGradient>
  </defs>
  <g id="Grupo_28" data-name="Grupo 28" transform="translate(-26.759 -76.639)">
    <g id="Grupo_23" data-name="Grupo 23" transform="translate(57.879 76.639)">
      <path id="Caminho_1" data-name="Caminho 1" d="M93.223,97.349V76.639h2.671v8.9a5.042,5.042,0,0,1,4.565-2.346c4.192,0,6.345,3.2,6.345,7.208,0,4.091-2.326,7.323-6.432,7.323a4.931,4.931,0,0,1-4.479-2.374v2Zm6.748-11.785c-2.383,0-4.106,1.859-4.106,4.834s1.723,4.92,4.106,4.92c2.469,0,4.077-1.945,4.077-4.92S102.469,85.564,99.971,85.564Z" transform="translate(-93.223 -76.639)" fill="url(#linear-gradient)"/>
      <path id="Caminho_2" data-name="Caminho 2" d="M140.591,100.837a6.258,6.258,0,0,1-6.2,4.348c-3.7,0-6.949-2.689-6.949-7.352,0-4.319,3.13-7.266,6.6-7.266,4.25,0,6.633,2.918,6.633,7.208a6.057,6.057,0,0,1-.057.858H130.226a4.094,4.094,0,0,0,4.164,4.177,3.761,3.761,0,0,0,3.876-2.775Zm-2.727-4.377a3.474,3.474,0,0,0-3.79-3.518,3.709,3.709,0,0,0-3.761,3.518Z" transform="translate(-111.419 -84.046)" fill="url(#linear-gradient)"/>
      <path id="Caminho_3" data-name="Caminho 3" d="M162.516,104.237V90.02h4.164v1.63a4.971,4.971,0,0,1,4.106-2.059,4.419,4.419,0,0,1,4.221,2.231,4.9,4.9,0,0,1,4.422-2.231c2.7,0,5.284,1.573,5.284,5.435v9.211H180.49V96a2.159,2.159,0,0,0-2.268-2.4,2.314,2.314,0,0,0-2.383,2.432v8.21h-4.307V96a2.166,2.166,0,0,0-2.3-2.4,2.315,2.315,0,0,0-2.355,2.46v8.181Z" transform="translate(-130.071 -83.526)" fill="url(#linear-gradient)"/>
      <path id="Caminho_4" data-name="Caminho 4" d="M220.148,96.027l3.36-.515c.775-.115,1.034-.486,1.034-.973,0-.83-.718-1.545-2.1-1.545A2.293,2.293,0,0,0,220,95.083l-3.79-.772c.172-2.031,2.067-4.72,6.26-4.72,4.623,0,6.317,2.574,6.317,5.492v6.951a13.882,13.882,0,0,0,.172,2.2h-3.934a6.946,6.946,0,0,1-.143-1.6,4.508,4.508,0,0,1-4.02,2c-3.13,0-4.939-2.06-4.939-4.319C215.927,97.8,217.793,96.37,220.148,96.027Zm4.393,2.632v-.629l-2.7.429c-.919.143-1.608.572-1.608,1.573,0,.744.488,1.459,1.694,1.459C223.22,101.491,224.541,100.861,224.541,98.659Z" transform="translate(-158.473 -83.526)" fill="url(#linear-gradient)"/>
      <path id="Caminho_5" data-name="Caminho 5" d="M260.321,94.635a5.929,5.929,0,0,0-1.378-.143c-1.751,0-3.331,1.03-3.331,3.862v6.207h-4.364V90.344h4.221v1.916a4.035,4.035,0,0,1,3.7-2.06,4.331,4.331,0,0,1,1.149.143Z" transform="translate(-177.256 -83.851)" fill="url(#linear-gradient)"/>
      <path id="Caminho_6" data-name="Caminho 6" d="M285.053,89.111l5.685,8.239H285.4l-3.359-5.006-1.407,1.516v3.49h-4.364V76.639h4.364v11.27l4.335-4.777h5.657Z" transform="translate(-190.56 -76.639)" fill="url(#linear-gradient)"/>
      <path id="Caminho_7" data-name="Caminho 7" d="M322.1,100.146c-.689,2.46-2.957,4.519-6.575,4.519a7.544,7.544,0,0,1-.316-15.075c4.422,0,7.149,2.717,7.149,7.294a9.057,9.057,0,0,1-.086,1.344h-9.935a3.085,3.085,0,0,0,3.245,2.746,2.756,2.756,0,0,0,2.871-1.859Zm-3.963-4.72a2.555,2.555,0,0,0-2.871-2.4,2.715,2.715,0,0,0-2.843,2.4Z" transform="translate(-207.484 -83.526)" fill="url(#linear-gradient)"/>
    </g>
    <g id="Grupo_26" data-name="Grupo 26" transform="translate(26.759 76.639)">
      <g id="Grupo_25" data-name="Grupo 25">
        <g id="Grupo_24" data-name="Grupo 24">
          <path id="Caminho_8" data-name="Caminho 8" d="M45.422,97.541h-16.6A2.031,2.031,0,0,1,27.33,96.9a2.13,2.13,0,0,1-.567-1.579l1.021-18.681H46.5L47.52,95.321a2.1,2.1,0,0,1-2.1,2.22ZM28.83,95.474H45.422a.034.034,0,0,0,.034-.037v0l-.914-16.727H29.74l-.914,16.731A.1.1,0,0,0,28.83,95.474Z" transform="translate(-26.759 -76.639)" fill="url(#linear-gradient)"/>
        </g>
      </g>
      <path id="Caminho_9" data-name="Caminho 9" d="M37.738,85.571h2.087v2.348a2.711,2.711,0,0,0,1.128,2.2,3.337,3.337,0,0,0,4.884-.9,2.644,2.644,0,0,0,.33-1.331V85.572h2.087v2.494a4.194,4.194,0,0,1-1.171,2.982,5.248,5.248,0,0,1-3.223,1.765,5.381,5.381,0,0,1-5.393-2.353,4.265,4.265,0,0,1-.729-2.354Z" transform="translate(-32.597 -81.389)" fill="url(#linear-gradient)"/>
    </g>
  </g>
</svg>
