<svg xmlns="http://www.w3.org/2000/svg" width="69" height="69" viewBox="0 0 69 69"><defs><style>.a{fill:#faaa1a;}.b{fill:#fff;}</style></defs><g transform="translate(-73 -2645.926)"><path class="a" d="M34.5,0A34.5,34.5,0,1,1,0,34.5,34.5,34.5,0,0,1,34.5,0Z" transform="translate(73 2645.926)"/><g transform="translate(-221.636 2419.395)"><g transform="translate(308.636 240.53)"><path class="b" d="M322.2,273.909l-11-11a1.5,1.5,0,1,0-2.121,2.121l11,11a1.5,1.5,0,0,0,2.121-2.121Z" transform="translate(-308.636 -235.724)"/><path class="b" d="M349.113,257.048l-1.986-12.6a2.291,2.291,0,0,0-1.905-1.905l-12.585-1.989a2.289,2.289,0,0,0-1.976.643l-18.605,18.619a2.292,2.292,0,0,0,0,3.24l14.572,14.583a2.289,2.289,0,0,0,3.239,0l18.6-18.618A2.294,2.294,0,0,0,349.113,257.048Zm-6.582-6.418a2.291,2.291,0,1,1,0-3.241A2.289,2.289,0,0,1,342.532,250.63Z" transform="translate(-308.636 -240.53)"/></g></g></g></svg>