<svg xmlns="http://www.w3.org/2000/svg" width="61.908" height="102.802" viewBox="0 0 61.908 102.802"><g transform="translate(-3554.686 -284.032)"><g transform="translate(3554.686 294.016)"><path d="M3562.7,387.507c.794,7.688,3.343,11.693,7.844,12.589,3.479.693,8.668-1.2,10.191-3.957a13.9,13.9,0,0,0-2.009-.334,10.758,10.758,0,0,1-10.757-11.979c.243-2.766.679-5.5,2.528-7.635a28.757,28.757,0,0,1,4.006-3.259c.385-.308.75-.639,1.125-.96a4.691,4.691,0,0,0-1.469-.793c-2.044-.247-3.678.767-5.234,1.926-.96.714-1.913,1.437-2.726,2.049,1.407-4.618,2.892-9.621,4.481-14.592a2.7,2.7,0,0,0-.361-2.678c-2.148-3.165-3.413-6.551-2.308-10.493a3.572,3.572,0,0,0-.516-2.255c-.853-1.674-1.821-3.292-2.794-4.9a7.243,7.243,0,0,0-1.166-1.345c-2.2-2.161-2.67-4.412-1.4-6.78a5.192,5.192,0,0,1,6.238-2.348,34.36,34.36,0,0,1,7.347,3.062,45.006,45.006,0,0,1,14.2,12.9,2.666,2.666,0,0,1,.521,2.121c-.5,1.091-1.569.608-2.444.287-1.229-.45-2.441-.948-3.683-1.358a4.086,4.086,0,0,0-1.224-.018,4.673,4.673,0,0,0,.048,1.222c.388,1.25.814,2.49,1.286,3.71a3.278,3.278,0,0,1-.7,3.628c-.652.734-1.266,1.5-1.875,2.273-.634.8-.553,1.4.541,1.644a.741.741,0,0,0,.156.046,9.645,9.645,0,0,1,8.414,4.472c.667.939,1.486.8,2.055-.234.288-.526.529-1.077.811-1.607a4.747,4.747,0,0,1,5.188-2.1,1.278,1.278,0,0,1,.492.379c1.089,1.209,2.164,2.431,3.251,3.641a16.91,16.91,0,0,1,4.426,10.328,32.176,32.176,0,0,0,1.013,5.594c1.481,5.716,2.667,11.468,2.53,17.412a3.412,3.412,0,0,0,2.13,3.6c3,1.435,4.17,4.244,3.587,7.507-.8,4.47-3.715,7.158-7.511,9.107a44.3,44.3,0,0,1-14.231,4.12c-8.947,1.264-17.846,1.227-26.642-1.137a21.9,21.9,0,0,1-10.237-6.2c-2.579-2.691-3.748-5.846-2.833-9.6a6.389,6.389,0,0,1,4.457-5c.926-.28,1.094-.724,1.22-1.576.445-3.016,1.005-6.014,1.542-9.016A12.2,12.2,0,0,1,3562.7,387.507Zm28.883-10.566a18.854,18.854,0,0,0,.231,3.157c.8,3.15.317,5.918-2.068,8.25a9.506,9.506,0,0,0-.891,1.171c-1.121,1.508-.929,2,.909,2.3,6.861,1.115,5.437.3,8.378,5.951.206.4.6.944.932.959s.722-.519,1.018-.871a4.211,4.211,0,0,0,.561-.995c1.223-2.72,2.836-4.988,5.927-5.887,1.405-.409,1.285-1.529.487-2.464a12.754,12.754,0,0,1-2.939-8.624,11.968,11.968,0,0,0-.73-2.876,14.164,14.164,0,0,0-2.464,1.448,3.448,3.448,0,0,1-4.48.437,29.543,29.543,0,0,0-3.1-1.479A14.06,14.06,0,0,0,3591.583,376.94Z" transform="translate(-3554.686 -329.498)" fill="#eee"/></g><g transform="translate(3559.697 284.032)"><g transform="translate(0 0)"><g transform="translate(42.815 52.862)"><g transform="translate(1.001 0.228)"><path d="M3777.738,528.072a2.96,2.96,0,0,0,2.028-1.452.549.549,0,0,0-.948-.554,2.511,2.511,0,0,1-.2.3l.086-.111a2.525,2.525,0,0,1-.435.432l.111-.086a2.547,2.547,0,0,1-.552.321l.131-.055a2.435,2.435,0,0,1-.516.148.55.55,0,0,0-.328.252.549.549,0,0,0,.2.751.626.626,0,0,0,.423.055Z" transform="translate(-3777.042 -525.799)" fill="#427ec6"/></g><g transform="translate(2.868 0.218)"><path d="M3786.481,528.081a7.683,7.683,0,0,0,1.017-1.511.583.583,0,0,0,.056-.423.549.549,0,0,0-1-.131,7.132,7.132,0,0,1-.709,1.126l.086-.111q-.108.139-.222.273a.585.585,0,0,0-.161.388.559.559,0,0,0,.161.388.553.553,0,0,0,.388.161.544.544,0,0,0,.388-.161Z" transform="translate(-3785.544 -525.75)" fill="#427ec6"/></g><path d="M3773.506,526.613l.56-1.026a.574.574,0,0,0,.055-.423.561.561,0,0,0-.252-.328.554.554,0,0,0-.423-.055.561.561,0,0,0-.328.252l-.56,1.026a.578.578,0,0,0-.055.423.561.561,0,0,0,.252.328.555.555,0,0,0,.423.055.561.561,0,0,0,.328-.252Z" transform="translate(-3772.484 -524.759)" fill="#427ec6"/><g transform="translate(5.13 3.022)"><path d="M3796.185,539.222a.35.35,0,0,0,0-.7.35.35,0,0,0,0,.7Z" transform="translate(-3795.847 -538.522)" fill="#427ec6"/></g><g transform="translate(6.292 1.377)"><path d="M3801.146,531.254l.1.241a.132.132,0,0,0,.036.06.14.14,0,0,0,.056.046.16.16,0,0,0,.074.021.169.169,0,0,0,.08,0,.2.2,0,0,0,.12-.081.157.157,0,0,0,.02-.137l-.1-.241a.128.128,0,0,0-.036-.06.146.146,0,0,0-.056-.046.163.163,0,0,0-.074-.021.17.17,0,0,0-.08,0,.2.2,0,0,0-.12.081.156.156,0,0,0-.02.137Z" transform="translate(-3801.137 -531.029)" fill="#427ec6"/></g></g><g transform="translate(0 39.128)"><g transform="translate(0 8.483)"><g transform="translate(3.002 0.228)"><path d="M3593.279,504.16a2.959,2.959,0,0,1-2.028-1.452.549.549,0,1,1,.948-.554,2.466,2.466,0,0,0,.2.3l-.086-.111a2.529,2.529,0,0,0,.435.432l-.111-.086a2.554,2.554,0,0,0,.552.321l-.131-.055a2.455,2.455,0,0,0,.515.148.552.552,0,0,1,.328.252.549.549,0,0,1-.2.751.624.624,0,0,1-.423.055Z" transform="translate(-3591.181 -501.887)" fill="#427ec6"/></g><g transform="translate(1.901 0.218)"><path d="M3587.255,504.169a7.681,7.681,0,0,1-1.018-1.511.582.582,0,0,1-.055-.423.549.549,0,0,1,1-.131,7.107,7.107,0,0,0,.709,1.127l-.086-.111c.072.093.146.184.222.273a.586.586,0,0,1,.161.388.557.557,0,0,1-.161.388.551.551,0,0,1-.388.161.542.542,0,0,1-.388-.161Z" transform="translate(-3586.163 -501.838)" fill="#427ec6"/></g><g transform="translate(5.142)"><path d="M3601.556,502.7l-.56-1.026a.575.575,0,0,1-.055-.423.56.56,0,0,1,.252-.328.553.553,0,0,1,.423-.055.56.56,0,0,1,.328.252l.56,1.026a.576.576,0,0,1,.055.423.549.549,0,0,1-1,.131Z" transform="translate(-3600.923 -500.847)" fill="#427ec6"/></g><g transform="translate(0.991 3.022)"><path d="M3582.358,515.31a.35.35,0,0,1,0-.7.35.35,0,0,1,0,.7Z" transform="translate(-3582.021 -514.61)" fill="#427ec6"/></g><g transform="translate(0 1.377)"><path d="M3578,507.342l-.1.241a.13.13,0,0,1-.036.06.145.145,0,0,1-.056.046.163.163,0,0,1-.074.021.169.169,0,0,1-.08,0,.2.2,0,0,1-.12-.081.156.156,0,0,1-.02-.137l.1-.241a.13.13,0,0,1,.036-.06.146.146,0,0,1,.056-.046.164.164,0,0,1,.074-.021.17.17,0,0,1,.08,0,.2.2,0,0,1,.12.081.156.156,0,0,1,.02.137Z" transform="translate(-3577.508 -507.117)" fill="#427ec6"/></g></g><g transform="translate(1.278)"><g transform="translate(1.261 9.102)"><path d="M3594.234,506.05l-2.582.131-2.582.131,1.822,15.091a.512.512,0,0,0,.534.45l1.742-.088,2.219-.112Q3594.812,513.851,3594.234,506.05Z" transform="translate(-3589.071 -505.527)" fill="#c98751"/><path d="M3615.167,504.99l-2.582.131q.577,7.8,1.154,15.6l2.219-.112,2.219-.112q-.214-7.819-.429-15.639Z" transform="translate(-3607.421 -504.597)" fill="#d19058"/><path d="M3638.684,503.8l-2.582.131q.215,7.82.429,15.639l2.219-.112,1.832-.093a.417.417,0,0,0,.4-.408q.145-7.643.289-15.287Z" transform="translate(-3625.774 -503.668)" fill="#c27742"/></g><path d="M3606.069,522.232l.027-1.407-14.969.758.168,1.4Z" transform="translate(-3589.415 -507.955)" fill="#345b6e"/><path d="M3609.519,560.823l.027-1.407-13.792.7.168,1.4Z" transform="translate(-3593.025 -538.072)" fill="#345b6e"/><path d="M3648.1,560.938l2.266-.115q.014-.7.027-1.407l-2.3.116Q3648.1,560.235,3648.1,560.938Z" transform="translate(-3633.873 -538.072)" fill="#234f63"/><g transform="translate(16.623 7.835)"><path d="M3659.167,500.89h-.01a.145.145,0,0,1-.13-.155c.017-1.263.084-1.541.484-1.636.014-.2.032-.655.044-1.058a.138.138,0,0,1,.136-.143.146.146,0,0,1,.128.157c-.005.177-.033,1.063-.058,1.205a.139.139,0,0,1-.11.118c-.27.042-.343.053-.36,1.365A.141.141,0,0,1,3659.167,500.89Z" transform="translate(-3659.027 -497.898)" fill="#2c596e"/></g><path d="M3647.938,522.356l2.462-.125.026-1.407-2.495.126Q3647.935,521.654,3647.938,522.356Z" transform="translate(-3633.745 -507.955)" fill="#234f63"/><g transform="translate(0.488 8.68)"><path d="M3586.487,504.667a.141.141,0,0,1-.139-.133c-.15-1.3-.223-1.308-.5-1.322a.139.139,0,0,1-.122-.106c-.039-.139-.156-1.018-.179-1.193a.146.146,0,0,1,.111-.169.139.139,0,0,1,.151.128c.052.4.116.849.15,1.049.408.054.5.324.647,1.578a.145.145,0,0,1-.114.167Z" transform="translate(-3585.55 -501.743)" fill="#2c596e"/></g><g transform="translate(0 0.237)"><path d="M3600.636,471.738c-.251.013-.843-.086-.9-1.27a7.486,7.486,0,0,0-7.852-6.863c-3.534.179-7.329,3.476-7.119,7.621.06,1.185-.518,1.342-.77,1.355a.628.628,0,0,1-.519-.287,1.109,1.109,0,0,1-.087-.949.129.129,0,0,1,.165-.1.157.157,0,0,1,.088.189.828.828,0,0,0,.041.675.372.372,0,0,0,.3.169c.473-.024.544-.579.521-1.041-.219-4.317,3.709-7.75,7.367-7.935a7.772,7.772,0,0,1,8.132,7.15c.023.462.15,1.007.623.983a.373.373,0,0,0,.278-.2.827.827,0,0,0-.028-.676.156.156,0,0,1,.069-.2.129.129,0,0,1,.174.081,1.111,1.111,0,0,1,.01.953A.63.63,0,0,1,3600.636,471.738Z" transform="translate(-3583.328 -463.295)" fill="#2c596e"/></g><path d="M3615.377,462.316c.967-.049.962.056,1.474.03.228-.011.268-.118.479-.129.184-.009.133.085.154.494s.081.5-.1.507c-.211.011-.262-.091-.49-.08-.512.026-.5.13-1.464.179s-.961-.056-1.474-.03c-.228.012-.269.118-.479.129-.185.009-.134-.085-.155-.494s-.081-.5.1-.507c.211-.011.262.091.49.08C3614.427,462.469,3614.411,462.365,3615.377,462.316Z" transform="translate(-3606.714 -462.216)" fill="#c98751"/><path d="M3616.415,523.953l-.071-1.4-2.495.126q.052.7.1,1.4Z" transform="translate(-3607.147 -509.302)" fill="#3b6378"/><path d="M3619.059,562.408l-.071-1.4-2.3.117q.051.7.1,1.4Z" transform="translate(-3609.363 -539.313)" fill="#3b6378"/><g transform="translate(3.507 21.783)"><ellipse cx="0.264" cy="0.301" rx="0.264" ry="0.301" transform="translate(0 0.622) rotate(-2.9)" fill="#01374d"/><ellipse cx="0.264" cy="0.301" rx="0.264" ry="0.301" transform="translate(11.748 0.027) rotate(-2.9)" fill="#01374d"/><ellipse cx="0.264" cy="0.301" rx="0.264" ry="0.301" transform="translate(7.832 0.225) rotate(-2.9)" fill="#01374d"/><ellipse cx="0.264" cy="0.301" rx="0.264" ry="0.301" transform="translate(3.916 0.423) rotate(-2.9)" fill="#01374d"/></g><g transform="translate(2.815 13.325)"><ellipse cx="0.264" cy="0.301" rx="0.264" ry="0.301" transform="translate(0 0.649) rotate(-2.9)" fill="#01374d"/><ellipse cx="0.264" cy="0.301" rx="0.264" ry="0.301" transform="translate(12.276 0.027) rotate(-2.9)" fill="#01374d"/><ellipse cx="0.264" cy="0.301" rx="0.264" ry="0.301" transform="translate(8.184 0.234) rotate(-2.9)" fill="#01374d"/><ellipse cx="0.264" cy="0.301" rx="0.264" ry="0.301" transform="translate(4.092 0.441) rotate(-2.9)" fill="#01374d"/></g></g></g><g transform="translate(30.448 45.04)"><g transform="translate(1.183 9.308)"><path d="M3726.722,531.607l-2.585-.04-2.585-.04.821,15.178a.512.512,0,0,0,.5.484l1.744.027,2.222.034Q3726.783,539.429,3726.722,531.607Z" transform="translate(-3721.553 -531.527)" fill="#c98751"/><path d="M3747.68,531.931l-2.585-.04q.061,7.822.121,15.644l2.222.034,2.222.034q.3-7.817.6-15.633Z" transform="translate(-3739.925 -531.811)" fill="#d19058"/><path d="M3769.075,532.295l-2.585-.04q-.3,7.817-.6,15.633l2.222.034,1.833.028a.416.416,0,0,0,.421-.381q.649-7.617,1.3-15.235Z" transform="translate(-3756.15 -532.095)" fill="#c27742"/></g><path d="M3737.347,550.3l.119-1.4-14.986-.232.076,1.4Z" transform="translate(-3721.093 -535.591)" fill="#345b6e"/><path d="M3738.255,588.818l.12-1.4-13.809-.214.076,1.405Z" transform="translate(-3722.721 -565.669)" fill="#345b6e"/><path d="M3776.573,589.416l2.269.035.119-1.4-2.3-.036Q3776.616,588.714,3776.573,589.416Z" transform="translate(-3763.308 -566.301)" fill="#234f63"/><g transform="translate(16.459 8.318)"><path d="M3791.248,529.971h-.01a.145.145,0,0,1-.12-.163c.1-1.259.186-1.532.592-1.6.027-.2.074-.652.113-1.053a.138.138,0,0,1,.146-.134.146.146,0,0,1,.117.165c-.017.175-.1,1.059-.137,1.2a.139.139,0,0,1-.118.11c-.272.024-.345.031-.449,1.339A.141.141,0,0,1,3791.248,529.971Z" transform="translate(-3791.118 -527.02)" fill="#2c596e"/></g><path d="M3778.956,550.943l2.465.038.119-1.4-2.5-.039Q3779,550.242,3778.956,550.943Z" transform="translate(-3765.168 -536.277)" fill="#234f63"/><g transform="translate(0.482 8.06)"><path d="M3719.109,528.817a.14.14,0,0,1-.129-.142c-.064-1.311-.137-1.319-.408-1.352a.139.139,0,0,1-.114-.114c-.03-.141-.088-1.026-.1-1.2a.146.146,0,0,1,.122-.162.139.139,0,0,1,.142.138c.026.4.06.854.081,1.056.4.081.48.356.542,1.618a.145.145,0,0,1-.125.159Z" transform="translate(-3718.357 -525.845)" fill="#2c596e"/></g><g transform="translate(0 0.167)"><path d="M3733.439,498.9c-.252,0-.835-.141-.817-1.327a7.487,7.487,0,0,0-7.382-7.367c-3.537-.055-7.542,2.985-7.606,7.135-.018,1.186-.605,1.305-.857,1.3a.628.628,0,0,1-.5-.321,1.108,1.108,0,0,1-.024-.952.129.129,0,0,1,.171-.087.157.157,0,0,1,.076.194.827.827,0,0,0,0,.677.373.373,0,0,0,.284.189c.473.007.581-.542.588-1,.067-4.322,4.213-7.488,7.875-7.431a7.772,7.772,0,0,1,7.642,7.671c-.007.462.084,1.015.557,1.022a.372.372,0,0,0,.29-.18.826.826,0,0,0,.017-.676.157.157,0,0,1,.082-.191.128.128,0,0,1,.168.092,1.112,1.112,0,0,1-.053.951A.63.63,0,0,1,3733.439,498.9Z" transform="translate(-3716.164 -489.901)" fill="#2c596e"/></g><path d="M3750.648,489.17c.968.015.956.119,1.469.127.228,0,.276-.1.487-.1.185,0,.127.093.121.5s.048.5-.137.5c-.211,0-.256-.108-.484-.112-.513-.008-.5.1-1.472.082s-.956-.119-1.469-.127c-.229,0-.276.1-.487.1-.185,0-.128-.093-.122-.5s-.048-.5.137-.5c.211,0,.255.108.483.112C3749.689,489.26,3749.681,489.155,3750.648,489.17Z" transform="translate(-3741.433 -489.14)" fill="#c98751"/><path d="M3747.7,550.455l.022-1.4-2.5-.039q.005.7.011,1.4Z" transform="translate(-3738.846 -535.865)" fill="#3b6378"/><path d="M3747.805,588.966l.022-1.4-2.3-.036q.005.7.011,1.4Z" transform="translate(-3739.078 -565.922)" fill="#3b6378"/><g transform="translate(2.589 21.946)"><ellipse cx="0.301" cy="0.264" rx="0.301" ry="0.264" transform="matrix(0.015, -1, 1, 0.015, 0, 0.601)" fill="#01374d"/><ellipse cx="0.301" cy="0.264" rx="0.301" ry="0.264" transform="matrix(0.015, -1, 1, 0.015, 11.761, 0.783)" fill="#01374d"/><ellipse cx="0.301" cy="0.264" rx="0.301" ry="0.264" transform="matrix(0.015, -1, 1, 0.015, 7.841, 0.723)" fill="#01374d"/><ellipse cx="0.301" cy="0.264" rx="0.301" ry="0.264" transform="matrix(0.015, -1, 1, 0.015, 3.92, 0.662)" fill="#01374d"/></g><g transform="translate(2.455 13.488)"><ellipse cx="0.301" cy="0.264" rx="0.301" ry="0.264" transform="matrix(0.015, -1, 1, 0.015, 0, 0.601)" fill="#01374d"/><ellipse cx="0.301" cy="0.264" rx="0.301" ry="0.264" transform="matrix(0.015, -1, 1, 0.015, 12.29, 0.792)" fill="#01374d"/><ellipse cx="0.301" cy="0.264" rx="0.301" ry="0.264" transform="matrix(0.015, -1, 1, 0.015, 8.193, 0.728)" fill="#01374d"/><ellipse cx="0.301" cy="0.264" rx="0.301" ry="0.264" transform="matrix(0.015, -1, 1, 0.015, 4.097, 0.665)" fill="#01374d"/></g></g><g transform="translate(6.005)"><path d="M3674.894,284.035a1.683,1.683,0,0,1,1.627,2.387,37.812,37.812,0,0,0-2.207,5.932c-.8,2.865-.97,6.552,1.523,8.176,1.593,1.037-1.183,4.178.167,5.516,1.367,1.356,1.157,3.579.878,5.484-2.837,19.337-2.142,29.431.764,48.757a1.687,1.687,0,0,1-1.568,1.94l-.5.029a1.686,1.686,0,0,1-1.765-1.426c-2.953-19.429-4.122-26.778-1.27-46.222.28-1.9.489-4.128-.878-5.484-1.349-1.339,1.426-4.479-.167-5.516-2.492-1.623-1.865-8.167-1.065-11.032a37.863,37.863,0,0,1,3.063-7.636,1.7,1.7,0,0,1,1.4-.905Z" transform="translate(-3655.48 -284.032)" fill="#b5895d"/><g transform="translate(0 60.494)"><path d="M3638.482,603.972a8.157,8.157,0,0,1,5.316,5.146c.7,2.378-.683,4.381.373,6.623s4.274,6.77,6.716,6.343c-2.037,1.829-5.508,1.293-8.06.3,1.344,1.217.546-6.909,1.248-5.238s-1.116.97,1.682,3.536c1.336,1.225-.017,1.552.42,3.311.4,1.6-.365,6.926,8.45,5.387-20.1,7.789-29.138-4.485-29.231-13.14a12.445,12.445,0,0,1-4.6,3.928,5.354,5.354,0,0,1-5.723-.716c5.714-1.928,10.495-7.56,10.418-13.59Z" transform="translate(-3612.83 -594.21)" fill="#ad7409"/><path d="M3667.572,563.01s.235-2.106,1.2-2.339a2.312,2.312,0,0,0-2.737,1.181,2.419,2.419,0,0,1-.446-2.334s-1.585.3-1.3,3.027a3.67,3.67,0,0,1-1.3-2.433,3.675,3.675,0,0,0-.819,1.645,1.8,1.8,0,0,0-1.414-1.383,2.419,2.419,0,0,1-.177,2.369,2.312,2.312,0,0,0-2.854-.86c.986.121,1.461,2.186,1.461,2.186a1.666,1.666,0,0,0-2.5.677c1.638-.94,4.169,2.832,4.169,2.832l5.447-.891s2.083-4.037,3.818-3.291A1.666,1.666,0,0,0,3667.572,563.01Z" transform="translate(-3645.314 -559.518)" fill="#faaa1a"/><path d="M3618.217,599.087c-1.563,2.664-3.786,5.175-4.854,8.059a17.9,17.9,0,0,0-1.059,8.993c.363,2.258,1.1,4.885-.912,7.643-2.893,3.959-3.646,5.083-6.538,6.576,11.1-.278,19.2-6.975,21-9.611a35.484,35.484,0,0,0,2.422-3.619,5.7,5.7,0,0,0,.629-4.156,15.064,15.064,0,0,1,2.8,7.666,12.23,12.23,0,0,0,1.928-6.9c.125-6.449.134-8.859-4.646-13.136a12.91,12.91,0,0,0,9.434,1.6c-3.54-1.129-7.173-2.51-9.705-5.175Z" transform="translate(-3604.855 -588.797)" fill="#faaa1a"/></g><rect width="7.287" height="1.798" rx="0.899" transform="translate(15.003 67.758) rotate(-9.094)" fill="#b5895d"/><path d="M.9,0H12.2a.9.9,0,0,1,.9.9v0a.9.9,0,0,1-.9.9H.9A.9.9,0,0,1,0,.9v0A.9.9,0,0,1,.9,0Z" transform="translate(12.22 69.719) rotate(-9.094)" fill="#c49a6c"/><path d="M3632.018,411.229c-1.4.377-4.946-1.464-6.4-1.379-2.272.132-6.916,3.608-7.472,5.815-.513,2.039-1.377,4.147-1.193,6.241a1.3,1.3,0,0,0,.714,1.057h0a1.288,1.288,0,0,0,1.862-1.192c-.06-1.615.718-2.917,1.112-4.484.556-2.207,4.419-3.611,6.692-3.744,1.452-.085,4.683,2.606,6.088,2.229" transform="translate(-3614.278 -382.219)" fill="#b5895d"/><path d="M3692.465,411.433c1.836.493,6.652-1.173,8.549-1.063,2.97.172,5.673,6.165,6.4,9.049a37.846,37.846,0,0,1,1.131,8.149,1.7,1.7,0,0,1-.766,1.48h0a1.683,1.683,0,0,1-2.6-1.265,37.857,37.857,0,0,0-1.027-6.245c-.727-2.884-2.41-6.17-5.379-6.342-1.9-.11-3.773,1.162-5.609.67" transform="translate(-3673.227 -382.623)" fill="#b5895d"/></g></g></g><path d="M3676.526,402.487a5.693,5.693,0,0,1,.466,2.08,13.415,13.415,0,0,1-.122,2.14c-.164,1.418-.369,2.83-.548,4.245s-.353,2.829-.481,4.248-.22,2.842-.3,4.265c-.169,2.846-.243,5.7-.244,8.548,0,1.426.027,2.851.087,4.276s.139,2.849.288,4.268c-.185-1.415-.306-2.838-.4-4.262s-.126-2.852-.149-4.28c-.033-2.855.042-5.711.195-8.562.083-1.426.184-2.849.317-4.272s.309-2.84.513-4.252.422-2.822.61-4.236a13.307,13.307,0,0,0,.175-2.125A5.676,5.676,0,0,0,3676.526,402.487Z" transform="translate(-93.99 -92.444)" fill="#01285a"/><path d="M3692.837,368.717l-.747,2.011-1.072,2.886.711-1.523a12.21,12.21,0,0,0,.7-1.91Z" transform="translate(-106.395 -66.089)" fill="#01285a"/><path d="M3697.5,410.556a.655.655,0,0,1,.355-.181.634.634,0,0,1,.4.077c.062.028.117.08.17.109a.194.194,0,0,0,.082.026.416.416,0,0,0,.093.009,2.188,2.188,0,0,0,.389-.03c.522-.076,1.04-.2,1.556-.33,1.034-.253,2.068-.514,3.121-.711.264-.045.531-.083.8-.109a3.518,3.518,0,0,1,.823,0,1.194,1.194,0,0,1,.212.052l.191.076c.124.057.249.113.366.182a5,5,0,0,1,.676.449,6.874,6.874,0,0,1,2.031,2.459,6.446,6.446,0,0,0-.949-1.273,7.785,7.785,0,0,0-1.182-1.05,6.366,6.366,0,0,0-.666-.417,3.9,3.9,0,0,0-.351-.169l-.181-.069a.952.952,0,0,0-.177-.04,3.33,3.33,0,0,0-.771.012c-.261.029-.522.07-.782.117-1.045.177-2.078.441-3.122.659-.523.106-1.046.217-1.582.273a2.289,2.289,0,0,1-.407.006.5.5,0,0,1-.1-.017.262.262,0,0,1-.1-.043c-.061-.04-.1-.085-.159-.116A.61.61,0,0,0,3697.5,410.556Z" transform="translate(-111.45 -97.831)" fill="#01285a"/><path d="M3663.938,602.724c.961-.205,1.925-.386,2.891-.564s1.934-.337,2.9-.507c.969-.152,1.938-.313,2.909-.456l1.457-.211c.487-.062.973-.132,1.461-.187-.48.1-.962.2-1.444.294l-1.447.271c-.965.178-1.933.337-2.9.506-.97.152-1.937.314-2.909.456S3664.914,602.608,3663.938,602.724Z" transform="translate(-85.261 -247.208)" fill="#01285a"/><path d="M3675.195,596.906a24.889,24.889,0,0,1,4.571-.933,21.747,21.747,0,0,1-2.264.574A21.972,21.972,0,0,1,3675.195,596.906Z" transform="translate(-94.046 -243.442)" fill="#01285a"/><path d="M3672.7,293.956q-.454.964-.84,1.956t-.729,2a30.367,30.367,0,0,0-1.079,4.1,19.629,19.629,0,0,0-.377,4.213,12.328,12.328,0,0,0,.786,4.149,10.761,10.761,0,0,1-.678-2.022,13.59,13.59,0,0,1-.276-2.121,18.77,18.77,0,0,1,.33-4.26,28.823,28.823,0,0,1,2.864-8.014Z" transform="translate(-89.597 -7.745)" fill="#01285a"/><path d="M3694.522,442.391c.056-.821.126-1.64.19-2.46l.214-2.457.23-2.456.238-2.455.009-.092.094-.005a10.249,10.249,0,0,0,2.105-.322,5.243,5.243,0,0,0,.5-.169,5.36,5.36,0,0,1,1.6-.34,4.429,4.429,0,0,1,2.134.382,4.24,4.24,0,0,1,1.634,1.4,4.183,4.183,0,0,0-3.757-1.614,5.754,5.754,0,0,0-1.043.189,5.1,5.1,0,0,0-.5.166c-.167.066-.343.129-.518.179a10.422,10.422,0,0,1-2.15.348l.1-.1-.252,2.454-.259,2.453-.276,2.451C3694.722,440.758,3694.629,441.576,3694.522,442.391Z" transform="translate(-109.129 -115.185)" fill="#01285a"/></g></svg>